{
  "accessors": [
    {
      "name": "board_t3_s3_LGMS001_1_0_positions",
      "componentType": 5126,
      "count": 4,
      "min": [
        -1.5520000457763672,
        4.356200218200684,
        -0.0414000004529953
      ],
      "max": [
        1.5520000457763672,
        6.436200141906738,
        -0.0414000004529953
      ],
      "type": "VEC3",
      "bufferView": 0,
      "byteOffset": 0
    },
    {
      "name": "board_t3_s3_LGMS001_1_0_normals",
      "componentType": 5126,
      "count": 4,
      "min": [
        0,
        0,
        1
      ],
      "max": [
        0,
        0,
        1
      ],
      "type": "VEC3",
      "bufferView": 1,
      "byteOffset": 0
    },
    {
      "name": "board_t3_s3_LGMS001_1_0_texcoords",
      "componentType": 5126,
      "count": 4,
      "min": [
        0.005200000014156103,
        0.003000000026077032
      ],
      "max": [
        0.9983000159263611,
        0.996999979019165
      ],
      "type": "VEC2",
      "bufferView": 2,
      "byteOffset": 0
    },
    {
      "name": "board_t3_s3_LGMS001_1_0_indices",
      "componentType": 5123,
      "count": 6,
      "min": [
        0
      ],
      "max": [
        3
      ],
      "type": "SCALAR",
      "bufferView": 3,
      "byteOffset": 0
    },
    {
      "name": "board_t3_s3_LGMS001_1_1_positions",
      "componentType": 5126,
      "count": 20,
      "min": [
        -1.5520000457763672,
        4.356200218200684,
        -0.10170000046491623
      ],
      "max": [
        1.5520000457763672,
        6.436200141906738,
        -0.0414000004529953
      ],
      "type": "VEC3",
      "bufferView": 0,
      "byteOffset": 48
    },
    {
      "name": "board_t3_s3_LGMS001_1_1_normals",
      "componentType": 5126,
      "count": 20,
      "min": [
        -1,
        -1,
        -1
      ],
      "max": [
        1,
        1,
        0
      ],
      "type": "VEC3",
      "bufferView": 1,
      "byteOffset": 48
    },
    {
      "name": "board_t3_s3_LGMS001_1_1_texcoords",
      "componentType": 5126,
      "count": 20,
      "min": [
        0.005200000014156103,
        0.003000000026077032
      ],
      "max": [
        0.9983000159263611,
        0.996999979019165
      ],
      "type": "VEC2",
      "bufferView": 2,
      "byteOffset": 32
    },
    {
      "name": "board_t3_s3_LGMS001_1_1_indices",
      "componentType": 5123,
      "count": 30,
      "min": [
        0
      ],
      "max": [
        19
      ],
      "type": "SCALAR",
      "bufferView": 3,
      "byteOffset": 12
    }
  ],
  "asset": {
    "generator": "obj2gltf",
    "version": "2.0"
  },
  "buffers": [
    {
      "name": "board_t3_s3_LGMS001",
      "byteLength": 19400,
      "uri": "data:application/octet-stream;base64,"
    }
  ],
  "bufferViews": [
    {
      "name": "bufferView_0",
      "buffer": 0,
      "byteLength": 288,
      "byteOffset": 0,
      "byteStride": 12,
      "target": 34962
    },
    {
      "name": "bufferView_1",
      "buffer": 0,
      "byteLength": 288,
      "byteOffset": 288,
      "byteStride": 12,
      "target": 34962
    },
    {
      "name": "bufferView_2",
      "buffer": 0,
      "byteLength": 192,
      "byteOffset": 576,
      "byteStride": 8,
      "target": 34962
    },
    {
      "name": "bufferView_3",
      "buffer": 0,
      "byteLength": 72,
      "byteOffset": 768,
      "target": 34963
    },
    {
      "buffer": 0,
      "byteOffset": 840,
      "byteLength": 18558
    }
  ],
  "images": [
    {
      "name": "FONT_BOTTOM_512_256",
      "mimeType": "image/jpeg",
      "bufferView": 4
    }
  ],
  "materials": [
    {
      "name": "FONT_BOTTOM_512_256",
      "pbrMetallicRoughness": {
        "baseColorTexture": {
          "index": 0
        },
        "baseColorFactor": [
          1,
          1,
          1,
          1
        ],
        "metallicFactor": 0,
        "roughnessFactor": 0.99
      },
      "emissiveFactor": [
        0,
        0,
        0
      ],
      "alphaMode": "OPAQUE",
      "doubleSided": false
    },
    {
      "name": "board_t3_s3_LGMS001_b",
      "pbrMetallicRoughness": {
        "baseColorFactor": [
          0,
          0,
          0,
          1
        ],
        "metallicFactor": 0,
        "roughnessFactor": 0.99
      },
      "emissiveFactor": [
        0,
        0,
        0
      ],
      "alphaMode": "OPAQUE",
      "doubleSided": false
    }
  ],
  "meshes": [
    {
      "name": "board_t3_s3_LGMS001_1",
      "primitives": [
        {
          "attributes": {
            "POSITION": 0,
            "NORMAL": 1,
            "TEXCOORD_0": 2
          },
          "indices": 3,
          "material": 0,
          "mode": 4
        },
        {
          "attributes": {
            "POSITION": 4,
            "NORMAL": 5,
            "TEXCOORD_0": 6
          },
          "indices": 7,
          "material": 1,
          "mode": 4
        }
      ]
    }
  ],
  "nodes": [
    {
      "name": "board_t3_s3_LGMS001",
      "mesh": 0
    }
  ],
  "samplers": [
    {
      "wrapS": 10497,
      "wrapT": 10497
    }
  ],
  "scene": 0,
  "scenes": [
    {
      "nodes": [
        0
      ]
    }
  ],
  "textures": [
    {
      "name": "FONT_BOTTOM_512_256",
      "sampler": 0,
      "source": 0
    }
  ]
}
