{
  "accessors": [
    {
      "name": "Line007_1_0_positions",
      "componentType": 5126,
      "count": 1192,
      "min": [
        -0.6470999717712402,
        0.1251000016927719,
        -1.5133999586105347
      ],
      "max": [
        0.6425999999046326,
        1.517899990081787,
        1.5018999576568604
      ],
      "type": "VEC3",
      "bufferView": 0,
      "byteOffset": 0
    },
    {
      "name": "Line007_1_0_normals",
      "componentType": 5126,
      "count": 1192,
      "min": [
        -0.999983012676239,
        -1,
        -1
      ],
      "max": [
        0.9999040365219116,
        1,
        1
      ],
      "type": "VEC3",
      "bufferView": 1,
      "byteOffset": 0
    },
    {
      "name": "Line007_1_0_texcoords",
      "componentType": 5126,
      "count": 1192,
      "min": [
        0.0010999999940395355,
        0.00419999985024333
      ],
      "max": [
        0.998199999332428,
        0.9976999759674072
      ],
      "type": "VEC2",
      "bufferView": 2,
      "byteOffset": 0
    },
    {
      "name": "Line007_1_0_indices",
      "componentType": 5123,
      "count": 5052,
      "min": [
        0
      ],
      "max": [
        1191
      ],
      "type": "SCALAR",
      "bufferView": 3,
      "byteOffset": 0
    },
    {
      "name": "Cylinder004_1_0_positions",
      "componentType": 5126,
      "count": 200,
      "min": [
        0.48179998993873596,
        0.001500000013038516,
        0.8525000214576721
      ],
      "max": [
        0.6554999947547913,
        0.4772000014781952,
        1.3281999826431274
      ],
      "type": "VEC3",
      "bufferView": 0,
      "byteOffset": 14304
    },
    {
      "name": "Cylinder004_1_0_normals",
      "componentType": 5126,
      "count": 200,
      "min": [
        -1,
        -1,
        -1
      ],
      "max": [
        1,
        1,
        1
      ],
      "type": "VEC3",
      "bufferView": 1,
      "byteOffset": 14304
    },
    {
      "name": "Cylinder004_1_0_texcoords",
      "componentType": 5126,
      "count": 200,
      "min": [
        0.0044999998062849045,
        0.00279999990016222
      ],
      "max": [
        0.9937000274658203,
        0.9975000023841858
      ],
      "type": "VEC2",
      "bufferView": 2,
      "byteOffset": 9536
    },
    {
      "name": "Cylinder004_1_0_indices",
      "componentType": 5123,
      "count": 660,
      "min": [
        0
      ],
      "max": [
        199
      ],
      "type": "SCALAR",
      "bufferView": 3,
      "byteOffset": 10104
    },
    {
      "name": "Cylinder001_1_0_positions",
      "componentType": 5126,
      "count": 200,
      "min": [
        -0.6539000272750854,
        0.001500000013038516,
        0.8525000214576721
      ],
      "max": [
        -0.48030000925064087,
        0.4772000014781952,
        1.3281999826431274
      ],
      "type": "VEC3",
      "bufferView": 0,
      "byteOffset": 16704
    },
    {
      "name": "Cylinder001_1_0_normals",
      "componentType": 5126,
      "count": 200,
      "min": [
        -1,
        -1,
        -1
      ],
      "max": [
        1,
        1,
        1
      ],
      "type": "VEC3",
      "bufferView": 1,
      "byteOffset": 16704
    },
    {
      "name": "Cylinder001_1_0_texcoords",
      "componentType": 5126,
      "count": 200,
      "min": [
        0.0044999998062849045,
        0.00279999990016222
      ],
      "max": [
        0.9937000274658203,
        0.9975000023841858
      ],
      "type": "VEC2",
      "bufferView": 2,
      "byteOffset": 11136
    },
    {
      "name": "Cylinder001_1_0_indices",
      "componentType": 5123,
      "count": 660,
      "min": [
        0
      ],
      "max": [
        199
      ],
      "type": "SCALAR",
      "bufferView": 3,
      "byteOffset": 11424
    },
    {
      "name": "Cylinder005_1_0_positions",
      "componentType": 5126,
      "count": 200,
      "min": [
        0.48179998993873596,
        0.001500000013038516,
        -1.3456000089645386
      ],
      "max": [
        0.6554999947547913,
        0.4772000014781952,
        -0.8698999881744385
      ],
      "type": "VEC3",
      "bufferView": 0,
      "byteOffset": 19104
    },
    {
      "name": "Cylinder005_1_0_normals",
      "componentType": 5126,
      "count": 200,
      "min": [
        -1,
        -1,
        -1
      ],
      "max": [
        1,
        1,
        1
      ],
      "type": "VEC3",
      "bufferView": 1,
      "byteOffset": 19104
    },
    {
      "name": "Cylinder005_1_0_texcoords",
      "componentType": 5126,
      "count": 200,
      "min": [
        0.0044999998062849045,
        0.00279999990016222
      ],
      "max": [
        0.9937000274658203,
        0.9975000023841858
      ],
      "type": "VEC2",
      "bufferView": 2,
      "byteOffset": 12736
    },
    {
      "name": "Cylinder005_1_0_indices",
      "componentType": 5123,
      "count": 660,
      "min": [
        0
      ],
      "max": [
        199
      ],
      "type": "SCALAR",
      "bufferView": 3,
      "byteOffset": 12744
    },
    {
      "name": "Cylinder003_1_0_positions",
      "componentType": 5126,
      "count": 200,
      "min": [
        -0.6539000272750854,
        0.001500000013038516,
        -1.3456000089645386
      ],
      "max": [
        -0.48030000925064087,
        0.4772000014781952,
        -0.8698999881744385
      ],
      "type": "VEC3",
      "bufferView": 0,
      "byteOffset": 21504
    },
    {
      "name": "Cylinder003_1_0_normals",
      "componentType": 5126,
      "count": 200,
      "min": [
        -1,
        -1,
        -1
      ],
      "max": [
        1,
        1,
        1
      ],
      "type": "VEC3",
      "bufferView": 1,
      "byteOffset": 21504
    },
    {
      "name": "Cylinder003_1_0_texcoords",
      "componentType": 5126,
      "count": 200,
      "min": [
        0.0044999998062849045,
        0.00279999990016222
      ],
      "max": [
        0.9937000274658203,
        0.9975000023841858
      ],
      "type": "VEC2",
      "bufferView": 2,
      "byteOffset": 14336
    },
    {
      "name": "Cylinder003_1_0_indices",
      "componentType": 5123,
      "count": 660,
      "min": [
        0
      ],
      "max": [
        199
      ],
      "type": "SCALAR",
      "bufferView": 3,
      "byteOffset": 14064
    }
  ],
  "asset": {
    "generator": "obj2gltf",
    "version": "2.0"
  },
  "buffers": [
    {
      "name": "Car0429",
      "byteLength": 509476,
      "uri": "data:application/octet-stream;base64,"
    }
  ],
  "bufferViews": [
    {
      "name": "bufferView_0",
      "buffer": 0,
      "byteLength": 23904,
      "byteOffset": 0,
      "byteStride": 12,
      "target": 34962
    },
    {
      "name": "bufferView_1",
      "buffer": 0,
      "byteLength": 23904,
      "byteOffset": 23904,
      "byteStride": 12,
      "target": 34962
    },
    {
      "name": "bufferView_2",
      "buffer": 0,
      "byteLength": 15936,
      "byteOffset": 47808,
      "byteStride": 8,
      "target": 34962
    },
    {
      "name": "bufferView_3",
      "buffer": 0,
      "byteLength": 15384,
      "byteOffset": 63744,
      "target": 34963
    },
    {
      "buffer": 0,
      "byteOffset": 79128,
      "byteLength": 378100
    },
    {
      "buffer": 0,
      "byteOffset": 457228,
      "byteLength": 52246
    }
  ],
  "images": [
    {
      "name": "YT_Car0329",
      "mimeType": "image/jpeg",
      "bufferView": 4
    },
    {
      "name": "YT_CarL0329",
      "mimeType": "image/jpeg",
      "bufferView": 5
    }
  ],
  "materials": [
    {
      "name": "11___Default",
      "pbrMetallicRoughness": {
        "baseColorTexture": {
          "index": 0
        },
        "baseColorFactor": [
          1,
          1,
          1,
          1
        ],
        "metallicFactor": 0,
        "roughnessFactor": 0.99
      },
      "emissiveFactor": [
        0,
        0,
        0
      ],
      "alphaMode": "OPAQUE",
      "doubleSided": false
    },
    {
      "name": "22___Default",
      "pbrMetallicRoughness": {
        "baseColorTexture": {
          "index": 1
        },
        "baseColorFactor": [
          1,
          1,
          1,
          1
        ],
        "metallicFactor": 0,
        "roughnessFactor": 0.99
      },
      "emissiveFactor": [
        0,
        0,
        0
      ],
      "alphaMode": "OPAQUE",
      "doubleSided": false
    }
  ],
  "meshes": [
    {
      "name": "Line007_1",
      "primitives": [
        {
          "attributes": {
            "POSITION": 0,
            "NORMAL": 1,
            "TEXCOORD_0": 2
          },
          "indices": 3,
          "material": 0,
          "mode": 4
        }
      ]
    },
    {
      "name": "Cylinder004_1",
      "primitives": [
        {
          "attributes": {
            "POSITION": 4,
            "NORMAL": 5,
            "TEXCOORD_0": 6
          },
          "indices": 7,
          "material": 1,
          "mode": 4
        }
      ]
    },
    {
      "name": "Cylinder001_1",
      "primitives": [
        {
          "attributes": {
            "POSITION": 8,
            "NORMAL": 9,
            "TEXCOORD_0": 10
          },
          "indices": 11,
          "material": 1,
          "mode": 4
        }
      ]
    },
    {
      "name": "Cylinder005_1",
      "primitives": [
        {
          "attributes": {
            "POSITION": 12,
            "NORMAL": 13,
            "TEXCOORD_0": 14
          },
          "indices": 15,
          "material": 1,
          "mode": 4
        }
      ]
    },
    {
      "name": "Cylinder003_1",
      "primitives": [
        {
          "attributes": {
            "POSITION": 16,
            "NORMAL": 17,
            "TEXCOORD_0": 18
          },
          "indices": 19,
          "material": 1,
          "mode": 4
        }
      ]
    }
  ],
  "nodes": [
    {
      "name": "Line007",
      "mesh": 0
    },
    {
      "name": "Cylinder004",
      "mesh": 1
    },
    {
      "name": "Cylinder001",
      "mesh": 2
    },
    {
      "name": "Cylinder005",
      "mesh": 3
    },
    {
      "name": "Cylinder003",
      "mesh": 4
    }
  ],
  "samplers": [
    {
      "magFilter": 9729,
      "minFilter": 9986,
      "wrapS": 10497,
      "wrapT": 10497
    }
  ],
  "scene": 0,
  "scenes": [
    {
      "nodes": [
        0,
        1,
        2,
        3,
        4
      ]
    }
  ],
  "textures": [
    {
      "name": "YT_Car0329",
      "sampler": 0,
      "source": 0
    },
    {
      "name": "YT_CarL0329",
      "sampler": 0,
      "source": 1
    }
  ]
}
