{
  "accessors": [
    {
      "name": "JK_001_1_0_positions",
      "componentType": 5126,
      "count": 712,
      "min": [
        -5.09689998626709,
        7.602700233459473,
        -0.26499998569488525
      ],
      "max": [
        -4.94290018081665,
        7.873700141906738,
        0.367900013923645
      ],
      "type": "VEC3",
      "bufferView": 0,
      "byteOffset": 0
    },
    {
      "name": "JK_001_1_0_normals",
      "componentType": 5126,
      "count": 712,
      "min": [
        -0.9999998807907104,
        -1,
        -0.9999995231628418
      ],
      "max": [
        0.9999999403953552,
        1,
        0.9999998807907104
      ],
      "type": "VEC3",
      "bufferView": 1,
      "byteOffset": 0
    },
    {
      "name": "JK_001_1_0_texcoords",
      "componentType": 5126,
      "count": 712,
      "min": [
        0.006300000008195639,
        0.49380001425743103
      ],
      "max": [
        0.9976000189781189,
        0.9962000250816345
      ],
      "type": "VEC2",
      "bufferView": 2,
      "byteOffset": 0
    },
    {
      "name": "JK_001_1_0_indices",
      "componentType": 5123,
      "count": 1056,
      "min": [
        0
      ],
      "max": [
        711
      ],
      "type": "SCALAR",
      "bufferView": 3,
      "byteOffset": 0
    },
    {
      "name": "Cylinder9374_1_0_positions",
      "componentType": 5126,
      "count": 200,
      "min": [
        -7.139200210571289,
        0,
        -0.20669999718666077
      ],
      "max": [
        0.20000000298023224,
        8,
        0.20000000298023224
      ],
      "type": "VEC3",
      "bufferView": 0,
      "byteOffset": 8544
    },
    {
      "name": "Cylinder9374_1_0_normals",
      "componentType": 5126,
      "count": 200,
      "min": [
        -1,
        -1,
        -1
      ],
      "max": [
        1,
        1,
        1
      ],
      "type": "VEC3",
      "bufferView": 1,
      "byteOffset": 8544
    },
    {
      "name": "Cylinder9374_1_0_texcoords",
      "componentType": 5126,
      "count": 200,
      "min": [
        -5.600599765777588,
        -7.5
      ],
      "max": [
        6.600599765777588,
        8.5
      ],
      "type": "VEC2",
      "bufferView": 2,
      "byteOffset": 5696
    },
    {
      "name": "Cylinder9374_1_0_indices",
      "componentType": 5123,
      "count": 312,
      "min": [
        0
      ],
      "max": [
        199
      ],
      "type": "SCALAR",
      "bufferView": 3,
      "byteOffset": 2112
    }
  ],
  "asset": {
    "generator": "obj2gltf",
    "version": "2.0"
  },
  "buffers": [
    {
      "name": "JK02",
      "byteLength": 373336,
      "uri": "data:application/octet-stream;base64,"
    }
  ],
  "bufferViews": [
    {
      "name": "bufferView_0",
      "buffer": 0,
      "byteLength": 10944,
      "byteOffset": 0,
      "byteStride": 12,
      "target": 34962
    },
    {
      "name": "bufferView_1",
      "buffer": 0,
      "byteLength": 10944,
      "byteOffset": 10944,
      "byteStride": 12,
      "target": 34962
    },
    {
      "name": "bufferView_2",
      "buffer": 0,
      "byteLength": 7296,
      "byteOffset": 21888,
      "byteStride": 8,
      "target": 34962
    },
    {
      "name": "bufferView_3",
      "buffer": 0,
      "byteLength": 2736,
      "byteOffset": 29184,
      "target": 34963
    },
    {
      "buffer": 0,
      "byteOffset": 31920,
      "byteLength": 285133
    },
    {
      "buffer": 0,
      "byteOffset": 317053,
      "byteLength": 56283
    }
  ],
  "images": [
    {
      "name": "yuanchubiaopai",
      "mimeType": "image/jpeg",
      "bufferView": 4
    },
    {
      "name": "TianfuAirport_Biaozhigan",
      "mimeType": "image/jpeg",
      "bufferView": 5
    }
  ],
  "materials": [
    {
      "name": "Material__2143372149",
      "pbrMetallicRoughness": {
        "baseColorTexture": {
          "index": 0
        },
        "baseColorFactor": [
          1,
          1,
          1,
          1
        ],
        "metallicFactor": 0,
        "roughnessFactor": 0.99
      },
      "emissiveFactor": [
        0,
        0,
        0
      ],
      "alphaMode": "OPAQUE",
      "doubleSided": false
    },
    {
      "name": "Material__2143372144",
      "pbrMetallicRoughness": {
        "baseColorTexture": {
          "index": 1
        },
        "baseColorFactor": [
          1,
          1,
          1,
          1
        ],
        "metallicFactor": 0,
        "roughnessFactor": 0.99
      },
      "emissiveFactor": [
        0,
        0,
        0
      ],
      "alphaMode": "OPAQUE",
      "doubleSided": false
    }
  ],
  "meshes": [
    {
      "name": "JK_001_1",
      "primitives": [
        {
          "attributes": {
            "POSITION": 0,
            "NORMAL": 1,
            "TEXCOORD_0": 2
          },
          "indices": 3,
          "material": 0,
          "mode": 4
        }
      ]
    },
    {
      "name": "Cylinder9374_1",
      "primitives": [
        {
          "attributes": {
            "POSITION": 4,
            "NORMAL": 5,
            "TEXCOORD_0": 6
          },
          "indices": 7,
          "material": 1,
          "mode": 4
        }
      ]
    }
  ],
  "nodes": [
    {
      "name": "JK_001",
      "mesh": 0
    },
    {
      "name": "Cylinder9374",
      "mesh": 1
    }
  ],
  "samplers": [
    {
      "magFilter": 9729,
      "minFilter": 9986,
      "wrapS": 10497,
      "wrapT": 10497
    }
  ],
  "scene": 0,
  "scenes": [
    {
      "nodes": [
        0,
        1
      ]
    }
  ],
  "textures": [
    {
      "name": "yuanchubiaopai",
      "sampler": 0,
      "source": 0
    },
    {
      "name": "TianfuAirport_Biaozhigan",
      "sampler": 0,
      "source": 1
    }
  ]
}
