{
  "accessors": [
    {
      "name": "LaneControlLight_1af223af_de80_46dd_8668_86fd9df5985a_1_0_positions",
      "componentType": 5126,
      "count": 197,
      "min": [
        -249.60240173339844,
        22.548999786376953,
        2336.630126953125
      ],
      "max": [
        -248.65679931640625,
        23.80150032043457,
        2336.932861328125
      ],
      "type": "VEC3",
      "bufferView": 0,
      "byteOffset": 0
    },
    {
      "name": "LaneControlLight_1af223af_de80_46dd_8668_86fd9df5985a_1_0_normals",
      "componentType": 5126,
      "count": 197,
      "min": [
        -0.769824206829071,
        -0.7322229146957397,
        -0.9984549283981323
      ],
      "max": [
        0.7698140144348145,
        0.7072239518165588,
        0.9984546303749084
      ],
      "type": "VEC3",
      "bufferView": 1,
      "byteOffset": 0
    },
    {
      "name": "LaneControlLight_1af223af_de80_46dd_8668_86fd9df5985a_1_0_texcoords",
      "componentType": 5126,
      "count": 197,
      "min": [
        -421736742912,
        -81192730624
      ],
      "max": [
        196500275200,
        113318895616
      ],
      "type": "VEC2",
      "bufferView": 2,
      "byteOffset": 0
    },
    {
      "name": "LaneControlLight_1af223af_de80_46dd_8668_86fd9df5985a_1_0_indices",
      "componentType": 5123,
      "count": 426,
      "min": [
        0
      ],
      "max": [
        196
      ],
      "type": "SCALAR",
      "bufferView": 3,
      "byteOffset": 0
    },
    {
      "name": "LaneControlLight_1af223af_de80_46dd_8668_86fd9df5985a_1_1_positions",
      "componentType": 5126,
      "count": 50,
      "min": [
        -249.60240173339844,
        22.571199417114258,
        2336.838134765625
      ],
      "max": [
        -248.65679931640625,
        23.80150032043457,
        2336.932861328125
      ],
      "type": "VEC3",
      "bufferView": 0,
      "byteOffset": 2364
    },
    {
      "name": "LaneControlLight_1af223af_de80_46dd_8668_86fd9df5985a_1_1_normals",
      "componentType": 5126,
      "count": 50,
      "min": [
        -0.818088710308075,
        -0.7070984840393066,
        -0.9984549283981323
      ],
      "max": [
        0.8180086016654968,
        0.5775193572044373,
        0.9428937435150146
      ],
      "type": "VEC3",
      "bufferView": 1,
      "byteOffset": 2364
    },
    {
      "name": "LaneControlLight_1af223af_de80_46dd_8668_86fd9df5985a_1_1_texcoords",
      "componentType": 5126,
      "count": 50,
      "min": [
        0,
        0
      ],
      "max": [
        1,
        1
      ],
      "type": "VEC2",
      "bufferView": 2,
      "byteOffset": 1576
    },
    {
      "name": "LaneControlLight_1af223af_de80_46dd_8668_86fd9df5985a_1_1_indices",
      "componentType": 5123,
      "count": 84,
      "min": [
        0
      ],
      "max": [
        49
      ],
      "type": "SCALAR",
      "bufferView": 3,
      "byteOffset": 852
    },
    {
      "name": "LaneControlLight_1af223af_de80_46dd_8668_86fd9df5985a_1_2_positions",
      "componentType": 5126,
      "count": 4,
      "min": [
        -249.5236053466797,
        22.638599395751953,
        2336.849853515625
      ],
      "max": [
        -248.74420166015625,
        23.383899688720703,
        2336.892578125
      ],
      "type": "VEC3",
      "bufferView": 0,
      "byteOffset": 2964
    },
    {
      "name": "LaneControlLight_1af223af_de80_46dd_8668_86fd9df5985a_1_2_normals",
      "componentType": 5126,
      "count": 4,
      "min": [
        -0.5296236872673035,
        -0.5785259008407593,
        -0.9808885455131531
      ],
      "max": [
        0.621588945388794,
        0.16200533509254456,
        -0.530690610408783
      ],
      "type": "VEC3",
      "bufferView": 1,
      "byteOffset": 2964
    },
    {
      "name": "LaneControlLight_1af223af_de80_46dd_8668_86fd9df5985a_1_2_texcoords",
      "componentType": 5126,
      "count": 4,
      "min": [
        0,
        0
      ],
      "max": [
        1,
        0.9171000123023987
      ],
      "type": "VEC2",
      "bufferView": 2,
      "byteOffset": 1976
    },
    {
      "name": "LaneControlLight_1af223af_de80_46dd_8668_86fd9df5985a_1_2_indices",
      "componentType": 5123,
      "count": 6,
      "min": [
        0
      ],
      "max": [
        3
      ],
      "type": "SCALAR",
      "bufferView": 3,
      "byteOffset": 1020
    },
    {
      "name": "LaneControlLight_1af223af_de80_46dd_8668_86fd9df5985a_1_3_positions",
      "componentType": 5126,
      "count": 64,
      "min": [
        -249.60240173339844,
        22.808700561523438,
        2336.856201171875
      ],
      "max": [
        -248.65679931640625,
        23.80150032043457,
        2336.932861328125
      ],
      "type": "VEC3",
      "bufferView": 0,
      "byteOffset": 3012
    },
    {
      "name": "LaneControlLight_1af223af_de80_46dd_8668_86fd9df5985a_1_3_normals",
      "componentType": 5126,
      "count": 64,
      "min": [
        -0.818088710308075,
        -0.7070984840393066,
        -0.8393031358718872
      ],
      "max": [
        0.8180086016654968,
        0.5775193572044373,
        0.8393031358718872
      ],
      "type": "VEC3",
      "bufferView": 1,
      "byteOffset": 3012
    },
    {
      "name": "LaneControlLight_1af223af_de80_46dd_8668_86fd9df5985a_1_3_texcoords",
      "componentType": 5126,
      "count": 64,
      "min": [
        0,
        0
      ],
      "max": [
        1,
        1
      ],
      "type": "VEC2",
      "bufferView": 2,
      "byteOffset": 2008
    },
    {
      "name": "LaneControlLight_1af223af_de80_46dd_8668_86fd9df5985a_1_3_indices",
      "componentType": 5123,
      "count": 96,
      "min": [
        0
      ],
      "max": [
        63
      ],
      "type": "SCALAR",
      "bufferView": 3,
      "byteOffset": 1032
    },
    {
      "name": "sign_01_1_0_positions",
      "componentType": 5126,
      "count": 12,
      "min": [
        -249.39649963378906,
        22.68280029296875,
        2336.83447265625
      ],
      "max": [
        -248.87420654296875,
        23.264299392700195,
        2336.86328125
      ],
      "type": "VEC3",
      "bufferView": 0,
      "byteOffset": 3780
    },
    {
      "name": "sign_01_1_0_normals",
      "componentType": 5126,
      "count": 12,
      "min": [
        0.05390246585011482,
        -0.0019000227330252528,
        -0.9985457062721252
      ],
      "max": [
        0.056300751864910126,
        0.002100083278492093,
        -0.9984133243560791
      ],
      "type": "VEC3",
      "bufferView": 1,
      "byteOffset": 3780
    },
    {
      "name": "sign_01_1_0_texcoords",
      "componentType": 5126,
      "count": 12,
      "min": [
        0.16680000722408295,
        0.14720000326633453
      ],
      "max": [
        0.836899995803833,
        0.8626999855041504
      ],
      "type": "VEC2",
      "bufferView": 2,
      "byteOffset": 2520
    },
    {
      "name": "sign_01_1_0_indices",
      "componentType": 5123,
      "count": 30,
      "min": [
        0
      ],
      "max": [
        11
      ],
      "type": "SCALAR",
      "bufferView": 3,
      "byteOffset": 1224
    },
    {
      "name": "sign_02_1_0_positions",
      "componentType": 5126,
      "count": 12,
      "min": [
        -249.29730224609375,
        22.638599395751953,
        2336.845947265625
      ],
      "max": [
        -248.95199584960938,
        23.328699111938477,
        2336.864990234375
      ],
      "type": "VEC3",
      "bufferView": 0,
      "byteOffset": 3924
    },
    {
      "name": "sign_02_1_0_normals",
      "componentType": 5126,
      "count": 12,
      "min": [
        0.04899896681308746,
        0,
        -0.9987789392471313
      ],
      "max": [
        0.05770188197493553,
        0.006299867294728756,
        -0.9983325600624084
      ],
      "type": "VEC3",
      "bufferView": 1,
      "byteOffset": 3924
    },
    {
      "name": "sign_02_1_0_texcoords",
      "componentType": 5126,
      "count": 12,
      "min": [
        0.26660001277923584,
        0.06790000200271606
      ],
      "max": [
        0.7095999717712402,
        0.9171000123023987
      ],
      "type": "VEC2",
      "bufferView": 2,
      "byteOffset": 2616
    },
    {
      "name": "sign_02_1_0_indices",
      "componentType": 5123,
      "count": 30,
      "min": [
        0
      ],
      "max": [
        11
      ],
      "type": "SCALAR",
      "bufferView": 3,
      "byteOffset": 1284
    }
  ],
  "asset": {
    "generator": "obj2gltf",
    "version": "2.0"
  },
  "buffers": [
    {
      "name": "Lg_sign",
      "byteLength": 39848,
      "uri": "data:application/octet-stream;base64,"
    }
  ],
  "bufferViews": [
    {
      "name": "bufferView_0",
      "buffer": 0,
      "byteLength": 4068,
      "byteOffset": 0,
      "byteStride": 12,
      "target": 34962
    },
    {
      "name": "bufferView_1",
      "buffer": 0,
      "byteLength": 4068,
      "byteOffset": 4068,
      "byteStride": 12,
      "target": 34962
    },
    {
      "name": "bufferView_2",
      "buffer": 0,
      "byteLength": 2712,
      "byteOffset": 8136,
      "byteStride": 8,
      "target": 34962
    },
    {
      "name": "bufferView_3",
      "buffer": 0,
      "byteLength": 1344,
      "byteOffset": 10848,
      "target": 34963
    },
    {
      "buffer": 0,
      "byteOffset": 12192,
      "byteLength": 8270
    },
    {
      "buffer": 0,
      "byteOffset": 20462,
      "byteLength": 2845
    },
    {
      "buffer": 0,
      "byteOffset": 23307,
      "byteLength": 8270
    },
    {
      "buffer": 0,
      "byteOffset": 31577,
      "byteLength": 8270
    }
  ],
  "images": [
    {
      "name": "PGD_Sign_L_008",
      "mimeType": "image/jpeg",
      "bufferView": 4
    },
    {
      "name": "4",
      "mimeType": "image/png",
      "bufferView": 5
    },
    {
      "name": "sign_01",
      "mimeType": "image/jpeg",
      "bufferView": 6
    },
    {
      "name": "sign_02",
      "mimeType": "image/jpeg",
      "bufferView": 7
    }
  ],
  "materials": [
    {
      "name": "LaneControlLight_1af223af_de80_46dd_8668_86fd9df5985a1",
      "pbrMetallicRoughness": {
        "baseColorTexture": {
          "index": 0
        },
        "baseColorFactor": [
          1,
          1,
          1,
          1
        ],
        "metallicFactor": 0,
        "roughnessFactor": 0.99
      },
      "emissiveFactor": [
        0,
        0,
        0
      ],
      "alphaMode": "OPAQUE",
      "doubleSided": false
    },
    {
      "name": "LaneControlLight_1af223af_de80_46dd_8668_86fd9df5985a2",
      "pbrMetallicRoughness": {
        "baseColorTexture": {
          "index": 1
        },
        "baseColorFactor": [
          1,
          1,
          1,
          1
        ],
        "metallicFactor": 0,
        "roughnessFactor": 0.99
      },
      "emissiveFactor": [
        0,
        0,
        0
      ],
      "alphaMode": "OPAQUE",
      "doubleSided": false
    },
    {
      "name": "Material__70",
      "pbrMetallicRoughness": {
        "baseColorTexture": {
          "index": 0
        },
        "baseColorFactor": [
          1,
          1,
          1,
          1
        ],
        "metallicFactor": 0,
        "roughnessFactor": 0.99
      },
      "emissiveFactor": [
        0,
        0,
        0
      ],
      "alphaMode": "OPAQUE",
      "doubleSided": false
    },
    {
      "name": "LaneControlLight_1af223af_de80_46dd_8668_86fd9df5985a3",
      "pbrMetallicRoughness": {
        "baseColorTexture": {
          "index": 1
        },
        "baseColorFactor": [
          1,
          1,
          1,
          1
        ],
        "metallicFactor": 0,
        "roughnessFactor": 0.99
      },
      "emissiveFactor": [
        0,
        0,
        0
      ],
      "alphaMode": "OPAQUE",
      "doubleSided": false
    },
    {
      "name": "sign_01",
      "pbrMetallicRoughness": {
        "baseColorTexture": {
          "index": 2
        },
        "baseColorFactor": [
          1,
          1,
          1,
          1
        ],
        "metallicFactor": 0,
        "roughnessFactor": 0.99
      },
      "emissiveFactor": [
        0,
        0,
        0
      ],
      "alphaMode": "OPAQUE",
      "doubleSided": false
    },
    {
      "name": "sign_02",
      "pbrMetallicRoughness": {
        "baseColorTexture": {
          "index": 3
        },
        "baseColorFactor": [
          1,
          1,
          1,
          1
        ],
        "metallicFactor": 0,
        "roughnessFactor": 0.99
      },
      "emissiveFactor": [
        0,
        0,
        0
      ],
      "alphaMode": "OPAQUE",
      "doubleSided": false
    }
  ],
  "meshes": [
    {
      "name": "LaneControlLight_1af223af_de80_46dd_8668_86fd9df5985a_1",
      "primitives": [
        {
          "attributes": {
            "POSITION": 0,
            "NORMAL": 1,
            "TEXCOORD_0": 2
          },
          "indices": 3,
          "material": 0,
          "mode": 4
        },
        {
          "attributes": {
            "POSITION": 4,
            "NORMAL": 5,
            "TEXCOORD_0": 6
          },
          "indices": 7,
          "material": 1,
          "mode": 4
        },
        {
          "attributes": {
            "POSITION": 8,
            "NORMAL": 9,
            "TEXCOORD_0": 10
          },
          "indices": 11,
          "material": 2,
          "mode": 4
        },
        {
          "attributes": {
            "POSITION": 12,
            "NORMAL": 13,
            "TEXCOORD_0": 14
          },
          "indices": 15,
          "material": 3,
          "mode": 4
        }
      ]
    },
    {
      "name": "sign_01_1",
      "primitives": [
        {
          "attributes": {
            "POSITION": 16,
            "NORMAL": 17,
            "TEXCOORD_0": 18
          },
          "indices": 19,
          "material": 4,
          "mode": 4
        }
      ]
    },
    {
      "name": "sign_02_1",
      "primitives": [
        {
          "attributes": {
            "POSITION": 20,
            "NORMAL": 21,
            "TEXCOORD_0": 22
          },
          "indices": 23,
          "material": 5,
          "mode": 4
        }
      ]
    }
  ],
  "nodes": [
    {
      "name": "LaneControlLight_1af223af_de80_46dd_8668_86fd9df5985a",
      "mesh": 0
    },
    {
      "name": "sign_01",
      "mesh": 1
    },
    {
      "name": "sign_02",
      "mesh": 2
    }
  ],
  "samplers": [
    {
      "wrapS": 10497,
      "wrapT": 10497
    }
  ],
  "scene": 0,
  "scenes": [
    {
      "nodes": [
        0,
        1,
        2
      ]
    }
  ],
  "textures": [
    {
      "name": "PGD_Sign_L_008",
      "sampler": 0,
      "source": 0
    },
    {
      "name": "4",
      "sampler": 0,
      "source": 1
    },
    {
      "name": "sign_01",
      "sampler": 0,
      "source": 2
    },
    {
      "name": "sign_02",
      "sampler": 0,
      "source": 3
    }
  ]
}
