{
  "accessors": [
    {
      "name": "LaneControlLight_1af223af_de80_46dd_8668_86fd9df5985a_1_0_positions",
      "componentType": 5126,
      "count": 197,
      "min": [
        -0.47279998660087585,
        -0.6262999773025513,
        -0.15139999985694885
      ],
      "max": [
        0.47279998660087585,
        0.6262000203132629,
        0.15139999985694885
      ],
      "type": "VEC3",
      "bufferView": 0,
      "byteOffset": 0
    },
    {
      "name": "LaneControlLight_1af223af_de80_46dd_8668_86fd9df5985a_1_0_normals",
      "componentType": 5126,
      "count": 197,
      "min": [
        -0.769824206829071,
        -0.7322229146957397,
        -0.9984549283981323
      ],
      "max": [
        0.7698140144348145,
        0.7072239518165588,
        0.9984546303749084
      ],
      "type": "VEC3",
      "bufferView": 1,
      "byteOffset": 0
    },
    {
      "name": "LaneControlLight_1af223af_de80_46dd_8668_86fd9df5985a_1_0_texcoords",
      "componentType": 5126,
      "count": 197,
      "min": [
        -421736742912,
        -81192730624
      ],
      "max": [
        196500275200,
        113318895616
      ],
      "type": "VEC2",
      "bufferView": 2,
      "byteOffset": 0
    },
    {
      "name": "LaneControlLight_1af223af_de80_46dd_8668_86fd9df5985a_1_0_indices",
      "componentType": 5123,
      "count": 426,
      "min": [
        0
      ],
      "max": [
        196
      ],
      "type": "SCALAR",
      "bufferView": 3,
      "byteOffset": 0
    },
    {
      "name": "LaneControlLight_1af223af_de80_46dd_8668_86fd9df5985a_1_1_positions",
      "componentType": 5126,
      "count": 50,
      "min": [
        -0.47279998660087585,
        -0.6040999889373779,
        0.05660000070929527
      ],
      "max": [
        0.47279998660087585,
        0.6262000203132629,
        0.15139999985694885
      ],
      "type": "VEC3",
      "bufferView": 0,
      "byteOffset": 2364
    },
    {
      "name": "LaneControlLight_1af223af_de80_46dd_8668_86fd9df5985a_1_1_normals",
      "componentType": 5126,
      "count": 50,
      "min": [
        -0.818088710308075,
        -0.7070984840393066,
        -0.9984549283981323
      ],
      "max": [
        0.8180086016654968,
        0.5775193572044373,
        0.9428937435150146
      ],
      "type": "VEC3",
      "bufferView": 1,
      "byteOffset": 2364
    },
    {
      "name": "LaneControlLight_1af223af_de80_46dd_8668_86fd9df5985a_1_1_texcoords",
      "componentType": 5126,
      "count": 50,
      "min": [
        0,
        0
      ],
      "max": [
        1,
        1
      ],
      "type": "VEC2",
      "bufferView": 2,
      "byteOffset": 1576
    },
    {
      "name": "LaneControlLight_1af223af_de80_46dd_8668_86fd9df5985a_1_1_indices",
      "componentType": 5123,
      "count": 84,
      "min": [
        0
      ],
      "max": [
        49
      ],
      "type": "SCALAR",
      "bufferView": 3,
      "byteOffset": 852
    },
    {
      "name": "LaneControlLight_1af223af_de80_46dd_8668_86fd9df5985a_1_2_positions",
      "componentType": 5126,
      "count": 4,
      "min": [
        -0.39399999380111694,
        -0.5367000102996826,
        0.06840000301599503
      ],
      "max": [
        0.3853999972343445,
        0.2085999995470047,
        0.11110000312328339
      ],
      "type": "VEC3",
      "bufferView": 0,
      "byteOffset": 2964
    },
    {
      "name": "LaneControlLight_1af223af_de80_46dd_8668_86fd9df5985a_1_2_normals",
      "componentType": 5126,
      "count": 4,
      "min": [
        -0.5296236872673035,
        -0.5785259008407593,
        -0.9808885455131531
      ],
      "max": [
        0.621588945388794,
        0.16200533509254456,
        -0.530690610408783
      ],
      "type": "VEC3",
      "bufferView": 1,
      "byteOffset": 2964
    },
    {
      "name": "LaneControlLight_1af223af_de80_46dd_8668_86fd9df5985a_1_2_texcoords",
      "componentType": 5126,
      "count": 4,
      "min": [
        0,
        0
      ],
      "max": [
        1,
        0.9171000123023987
      ],
      "type": "VEC2",
      "bufferView": 2,
      "byteOffset": 1976
    },
    {
      "name": "LaneControlLight_1af223af_de80_46dd_8668_86fd9df5985a_1_2_indices",
      "componentType": 5123,
      "count": 6,
      "min": [
        0
      ],
      "max": [
        3
      ],
      "type": "SCALAR",
      "bufferView": 3,
      "byteOffset": 1020
    },
    {
      "name": "LaneControlLight_1af223af_de80_46dd_8668_86fd9df5985a_1_3_positions",
      "componentType": 5126,
      "count": 64,
      "min": [
        -0.47279998660087585,
        -0.36660000681877136,
        0.0746999979019165
      ],
      "max": [
        0.47279998660087585,
        0.6262000203132629,
        0.15139999985694885
      ],
      "type": "VEC3",
      "bufferView": 0,
      "byteOffset": 3012
    },
    {
      "name": "LaneControlLight_1af223af_de80_46dd_8668_86fd9df5985a_1_3_normals",
      "componentType": 5126,
      "count": 64,
      "min": [
        -0.818088710308075,
        -0.7070984840393066,
        -0.8393031358718872
      ],
      "max": [
        0.8180086016654968,
        0.5775193572044373,
        0.8393031358718872
      ],
      "type": "VEC3",
      "bufferView": 1,
      "byteOffset": 3012
    },
    {
      "name": "LaneControlLight_1af223af_de80_46dd_8668_86fd9df5985a_1_3_texcoords",
      "componentType": 5126,
      "count": 64,
      "min": [
        0,
        0
      ],
      "max": [
        1,
        1
      ],
      "type": "VEC2",
      "bufferView": 2,
      "byteOffset": 2008
    },
    {
      "name": "LaneControlLight_1af223af_de80_46dd_8668_86fd9df5985a_1_3_indices",
      "componentType": 5123,
      "count": 96,
      "min": [
        0
      ],
      "max": [
        63
      ],
      "type": "SCALAR",
      "bufferView": 3,
      "byteOffset": 1032
    }
  ],
  "asset": {
    "generator": "obj2gltf",
    "version": "2.0"
  },
  "buffers": [
    {
      "name": "ControlLight",
      "byteLength": 213684,
      "uri": "data:application/octet-stream;base64,"
    }
  ],
  "bufferViews": [
    {
      "name": "bufferView_0",
      "buffer": 0,
      "byteLength": 3780,
      "byteOffset": 0,
      "byteStride": 12,
      "target": 34962
    },
    {
      "name": "bufferView_1",
      "buffer": 0,
      "byteLength": 3780,
      "byteOffset": 3780,
      "byteStride": 12,
      "target": 34962
    },
    {
      "name": "bufferView_2",
      "buffer": 0,
      "byteLength": 2520,
      "byteOffset": 7560,
      "byteStride": 8,
      "target": 34962
    },
    {
      "name": "bufferView_3",
      "buffer": 0,
      "byteLength": 1224,
      "byteOffset": 10080,
      "target": 34963
    },
    {
      "buffer": 0,
      "byteOffset": 11304,
      "byteLength": 8270
    },
    {
      "buffer": 0,
      "byteOffset": 19574,
      "byteLength": 2845
    },
    {
      "buffer": 0,
      "byteOffset": 22419,
      "byteLength": 191264
    }
  ],
  "images": [
    {
      "name": "PGD_Sign_L_008",
      "mimeType": "image/jpeg",
      "bufferView": 4
    },
    {
      "name": "4",
      "mimeType": "image/png",
      "bufferView": 5
    },
    {
      "name": "green",
      "mimeType": "image/jpeg",
      "bufferView": 6
    }
  ],
  "materials": [
    {
      "name": "LaneControlLight_1af223af_de80_46dd_8668_86fd9df5985a1",
      "pbrMetallicRoughness": {
        "baseColorTexture": {
          "index": 0
        },
        "baseColorFactor": [
          1,
          1,
          1,
          1
        ],
        "metallicFactor": 0,
        "roughnessFactor": 0.99
      },
      "emissiveFactor": [
        0,
        0,
        0
      ],
      "alphaMode": "OPAQUE",
      "doubleSided": false
    },
    {
      "name": "LaneControlLight_1af223af_de80_46dd_8668_86fd9df5985a2",
      "pbrMetallicRoughness": {
        "baseColorTexture": {
          "index": 1
        },
        "baseColorFactor": [
          1,
          1,
          1,
          1
        ],
        "metallicFactor": 0,
        "roughnessFactor": 0.99
      },
      "emissiveFactor": [
        0,
        0,
        0
      ],
      "alphaMode": "OPAQUE",
      "doubleSided": false
    },
    {
      "name": "LaneControlLight_1af223af_de80_46dd_8668_86fd9df5985a4",
      "pbrMetallicRoughness": {
        "baseColorTexture": {
          "index": 2
        },
        "baseColorFactor": [
          1,
          1,
          1,
          1
        ],
        "metallicFactor": 0,
        "roughnessFactor": 0.99
      },
      "emissiveFactor": [
        0,
        0,
        0
      ],
      "alphaMode": "OPAQUE",
      "doubleSided": false
    },
    {
      "name": "LaneControlLight_1af223af_de80_46dd_8668_86fd9df5985a3",
      "pbrMetallicRoughness": {
        "baseColorTexture": {
          "index": 1
        },
        "baseColorFactor": [
          1,
          1,
          1,
          1
        ],
        "metallicFactor": 0,
        "roughnessFactor": 0.99
      },
      "emissiveFactor": [
        0,
        0,
        0
      ],
      "alphaMode": "OPAQUE",
      "doubleSided": false
    }
  ],
  "meshes": [
    {
      "name": "LaneControlLight_1af223af_de80_46dd_8668_86fd9df5985a_1",
      "primitives": [
        {
          "attributes": {
            "POSITION": 0,
            "NORMAL": 1,
            "TEXCOORD_0": 2
          },
          "indices": 3,
          "material": 0,
          "mode": 4
        },
        {
          "attributes": {
            "POSITION": 4,
            "NORMAL": 5,
            "TEXCOORD_0": 6
          },
          "indices": 7,
          "material": 1,
          "mode": 4
        },
        {
          "attributes": {
            "POSITION": 8,
            "NORMAL": 9,
            "TEXCOORD_0": 10
          },
          "indices": 11,
          "material": 2,
          "mode": 4
        },
        {
          "attributes": {
            "POSITION": 12,
            "NORMAL": 13,
            "TEXCOORD_0": 14
          },
          "indices": 15,
          "material": 3,
          "mode": 4
        }
      ]
    }
  ],
  "nodes": [
    {
      "name": "LaneControlLight_1af223af_de80_46dd_8668_86fd9df5985a",
      "mesh": 0
    }
  ],
  "samplers": [
    {
      "wrapS": 10497,
      "wrapT": 10497
    }
  ],
  "scene": 0,
  "scenes": [
    {
      "nodes": [
        0
      ]
    }
  ],
  "textures": [
    {
      "name": "PGD_Sign_L_008",
      "sampler": 0,
      "source": 0
    },
    {
      "name": "4",
      "sampler": 0,
      "source": 1
    },
    {
      "name": "green",
      "sampler": 0,
      "source": 2
    }
  ]
}
