{
  "accessors": [
    {
      "name": "KC_001_1_0_positions",
      "componentType": 5126,
      "count": 24,
      "min": [
        -3.3208000659942627,
        6.8942999839782715,
        0.1071000024676323
      ],
      "max": [
        -3.300800085067749,
        6.914299964904785,
        0.12710000574588776
      ],
      "type": "VEC3",
      "bufferView": 0,
      "byteOffset": 0
    },
    {
      "name": "KC_001_1_0_normals",
      "componentType": 5126,
      "count": 24,
      "min": [
        -1,
        -1,
        -1
      ],
      "max": [
        1,
        1,
        1
      ],
      "type": "VEC3",
      "bufferView": 1,
      "byteOffset": 0
    },
    {
      "name": "KC_001_1_0_texcoords",
      "componentType": 5126,
      "count": 24,
      "min": [
        0,
        0
      ],
      "max": [
        1,
        1
      ],
      "type": "VEC2",
      "bufferView": 2,
      "byteOffset": 0
    },
    {
      "name": "KC_001_1_0_indices",
      "componentType": 5123,
      "count": 36,
      "min": [
        0
      ],
      "max": [
        23
      ],
      "type": "SCALAR",
      "bufferView": 3,
      "byteOffset": 0
    },
    {
      "name": "Gan_1_0_positions",
      "componentType": 5126,
      "count": 264,
      "min": [
        -7.378300189971924,
        0.00139999995008111,
        -0.3610000014305115
      ],
      "max": [
        0.33180001378059387,
        7.237500190734863,
        0.3610000014305115
      ],
      "type": "VEC3",
      "bufferView": 0,
      "byteOffset": 288
    },
    {
      "name": "Gan_1_0_normals",
      "componentType": 5126,
      "count": 264,
      "min": [
        -0.9999997615814209,
        -0.9999995827674866,
        -0.9999997615814209
      ],
      "max": [
        0.9999997615814209,
        1,
        0.9999997615814209
      ],
      "type": "VEC3",
      "bufferView": 1,
      "byteOffset": 288
    },
    {
      "name": "Gan_1_0_texcoords",
      "componentType": 5126,
      "count": 264,
      "min": [
        -7.982699871063232,
        -5.939899921417236
      ],
      "max": [
        8.98270034790039,
        6.409900188446045
      ],
      "type": "VEC2",
      "bufferView": 2,
      "byteOffset": 192
    },
    {
      "name": "Gan_1_0_indices",
      "componentType": 5123,
      "count": 330,
      "min": [
        0
      ],
      "max": [
        263
      ],
      "type": "SCALAR",
      "bufferView": 3,
      "byteOffset": 72
    },
    {
      "name": "KC_002_1_0_positions",
      "componentType": 5126,
      "count": 24,
      "min": [
        -3.7207999229431152,
        6.8942999839782715,
        0.1062999963760376
      ],
      "max": [
        -3.7007999420166016,
        6.914299964904785,
        0.12630000710487366
      ],
      "type": "VEC3",
      "bufferView": 0,
      "byteOffset": 3456
    },
    {
      "name": "KC_002_1_0_normals",
      "componentType": 5126,
      "count": 24,
      "min": [
        -1,
        -1,
        -1
      ],
      "max": [
        1,
        1,
        1
      ],
      "type": "VEC3",
      "bufferView": 1,
      "byteOffset": 3456
    },
    {
      "name": "KC_002_1_0_texcoords",
      "componentType": 5126,
      "count": 24,
      "min": [
        0,
        0
      ],
      "max": [
        1,
        1
      ],
      "type": "VEC2",
      "bufferView": 2,
      "byteOffset": 2304
    },
    {
      "name": "KC_002_1_0_indices",
      "componentType": 5123,
      "count": 36,
      "min": [
        0
      ],
      "max": [
        23
      ],
      "type": "SCALAR",
      "bufferView": 3,
      "byteOffset": 732
    },
    {
      "name": "KC_003_1_0_positions",
      "componentType": 5126,
      "count": 24,
      "min": [
        -4.120800018310547,
        6.8942999839782715,
        0.10450000315904617
      ],
      "max": [
        -4.100800037384033,
        6.914299964904785,
        0.12449999898672104
      ],
      "type": "VEC3",
      "bufferView": 0,
      "byteOffset": 3744
    },
    {
      "name": "KC_003_1_0_normals",
      "componentType": 5126,
      "count": 24,
      "min": [
        -1,
        -1,
        -1
      ],
      "max": [
        1,
        1,
        1
      ],
      "type": "VEC3",
      "bufferView": 1,
      "byteOffset": 3744
    },
    {
      "name": "KC_003_1_0_texcoords",
      "componentType": 5126,
      "count": 24,
      "min": [
        0,
        0
      ],
      "max": [
        1,
        1
      ],
      "type": "VEC2",
      "bufferView": 2,
      "byteOffset": 2496
    },
    {
      "name": "KC_003_1_0_indices",
      "componentType": 5123,
      "count": 36,
      "min": [
        0
      ],
      "max": [
        23
      ],
      "type": "SCALAR",
      "bufferView": 3,
      "byteOffset": 804
    },
    {
      "name": "KC_004_1_0_positions",
      "componentType": 5126,
      "count": 24,
      "min": [
        -4.5208001136779785,
        6.8942999839782715,
        0.10189999639987946
      ],
      "max": [
        -4.500800132751465,
        6.914299964904785,
        0.12189999967813492
      ],
      "type": "VEC3",
      "bufferView": 0,
      "byteOffset": 4032
    },
    {
      "name": "KC_004_1_0_normals",
      "componentType": 5126,
      "count": 24,
      "min": [
        -1,
        -1,
        -1
      ],
      "max": [
        1,
        1,
        1
      ],
      "type": "VEC3",
      "bufferView": 1,
      "byteOffset": 4032
    },
    {
      "name": "KC_004_1_0_texcoords",
      "componentType": 5126,
      "count": 24,
      "min": [
        0,
        0
      ],
      "max": [
        1,
        1
      ],
      "type": "VEC2",
      "bufferView": 2,
      "byteOffset": 2688
    },
    {
      "name": "KC_004_1_0_indices",
      "componentType": 5123,
      "count": 36,
      "min": [
        0
      ],
      "max": [
        23
      ],
      "type": "SCALAR",
      "bufferView": 3,
      "byteOffset": 876
    },
    {
      "name": "KC_005_1_0_positions",
      "componentType": 5126,
      "count": 24,
      "min": [
        -4.92080020904541,
        6.8942999839782715,
        0.10010000318288803
      ],
      "max": [
        -4.9008002281188965,
        6.914299964904785,
        0.1200999990105629
      ],
      "type": "VEC3",
      "bufferView": 0,
      "byteOffset": 4320
    },
    {
      "name": "KC_005_1_0_normals",
      "componentType": 5126,
      "count": 24,
      "min": [
        -1,
        -1,
        -1
      ],
      "max": [
        1,
        1,
        1
      ],
      "type": "VEC3",
      "bufferView": 1,
      "byteOffset": 4320
    },
    {
      "name": "KC_005_1_0_texcoords",
      "componentType": 5126,
      "count": 24,
      "min": [
        0,
        0
      ],
      "max": [
        1,
        1
      ],
      "type": "VEC2",
      "bufferView": 2,
      "byteOffset": 2880
    },
    {
      "name": "KC_005_1_0_indices",
      "componentType": 5123,
      "count": 36,
      "min": [
        0
      ],
      "max": [
        23
      ],
      "type": "SCALAR",
      "bufferView": 3,
      "byteOffset": 948
    },
    {
      "name": "KC_006_1_0_positions",
      "componentType": 5126,
      "count": 24,
      "min": [
        -5.320799827575684,
        6.8942999839782715,
        0.09880000352859497
      ],
      "max": [
        -5.30079984664917,
        6.914299964904785,
        0.11879999935626984
      ],
      "type": "VEC3",
      "bufferView": 0,
      "byteOffset": 4608
    },
    {
      "name": "KC_006_1_0_normals",
      "componentType": 5126,
      "count": 24,
      "min": [
        -1,
        -1,
        -1
      ],
      "max": [
        1,
        1,
        1
      ],
      "type": "VEC3",
      "bufferView": 1,
      "byteOffset": 4608
    },
    {
      "name": "KC_006_1_0_texcoords",
      "componentType": 5126,
      "count": 24,
      "min": [
        0,
        0
      ],
      "max": [
        1,
        1
      ],
      "type": "VEC2",
      "bufferView": 2,
      "byteOffset": 3072
    },
    {
      "name": "KC_006_1_0_indices",
      "componentType": 5123,
      "count": 36,
      "min": [
        0
      ],
      "max": [
        23
      ],
      "type": "SCALAR",
      "bufferView": 3,
      "byteOffset": 1020
    },
    {
      "name": "KC_007_1_0_positions",
      "componentType": 5126,
      "count": 24,
      "min": [
        -5.720799922943115,
        6.8942999839782715,
        0.09749999642372131
      ],
      "max": [
        -5.700799942016602,
        6.914299964904785,
        0.11749999970197678
      ],
      "type": "VEC3",
      "bufferView": 0,
      "byteOffset": 4896
    },
    {
      "name": "KC_007_1_0_normals",
      "componentType": 5126,
      "count": 24,
      "min": [
        -1,
        -1,
        -1
      ],
      "max": [
        1,
        1,
        1
      ],
      "type": "VEC3",
      "bufferView": 1,
      "byteOffset": 4896
    },
    {
      "name": "KC_007_1_0_texcoords",
      "componentType": 5126,
      "count": 24,
      "min": [
        0,
        0
      ],
      "max": [
        1,
        1
      ],
      "type": "VEC2",
      "bufferView": 2,
      "byteOffset": 3264
    },
    {
      "name": "KC_007_1_0_indices",
      "componentType": 5123,
      "count": 36,
      "min": [
        0
      ],
      "max": [
        23
      ],
      "type": "SCALAR",
      "bufferView": 3,
      "byteOffset": 1092
    },
    {
      "name": "KC_008_1_0_positions",
      "componentType": 5126,
      "count": 24,
      "min": [
        -6.120800018310547,
        6.8942999839782715,
        0.09570000320672989
      ],
      "max": [
        -6.100800037384033,
        6.914299964904785,
        0.11569999903440475
      ],
      "type": "VEC3",
      "bufferView": 0,
      "byteOffset": 5184
    },
    {
      "name": "KC_008_1_0_normals",
      "componentType": 5126,
      "count": 24,
      "min": [
        -1,
        -1,
        -1
      ],
      "max": [
        1,
        1,
        1
      ],
      "type": "VEC3",
      "bufferView": 1,
      "byteOffset": 5184
    },
    {
      "name": "KC_008_1_0_texcoords",
      "componentType": 5126,
      "count": 24,
      "min": [
        0,
        0
      ],
      "max": [
        1,
        1
      ],
      "type": "VEC2",
      "bufferView": 2,
      "byteOffset": 3456
    },
    {
      "name": "KC_008_1_0_indices",
      "componentType": 5123,
      "count": 36,
      "min": [
        0
      ],
      "max": [
        23
      ],
      "type": "SCALAR",
      "bufferView": 3,
      "byteOffset": 1164
    },
    {
      "name": "KC_009_1_0_positions",
      "componentType": 5126,
      "count": 24,
      "min": [
        -6.5208001136779785,
        6.8942999839782715,
        0.09380000084638596
      ],
      "max": [
        -6.500800132751465,
        6.914299964904785,
        0.11379999667406082
      ],
      "type": "VEC3",
      "bufferView": 0,
      "byteOffset": 5472
    },
    {
      "name": "KC_009_1_0_normals",
      "componentType": 5126,
      "count": 24,
      "min": [
        -1,
        -1,
        -1
      ],
      "max": [
        1,
        1,
        1
      ],
      "type": "VEC3",
      "bufferView": 1,
      "byteOffset": 5472
    },
    {
      "name": "KC_009_1_0_texcoords",
      "componentType": 5126,
      "count": 24,
      "min": [
        0,
        0
      ],
      "max": [
        1,
        1
      ],
      "type": "VEC2",
      "bufferView": 2,
      "byteOffset": 3648
    },
    {
      "name": "KC_009_1_0_indices",
      "componentType": 5123,
      "count": 36,
      "min": [
        0
      ],
      "max": [
        23
      ],
      "type": "SCALAR",
      "bufferView": 3,
      "byteOffset": 1236
    },
    {
      "name": "KC_010_1_0_positions",
      "componentType": 5126,
      "count": 24,
      "min": [
        -6.92080020904541,
        6.8942999839782715,
        0.0925000011920929
      ],
      "max": [
        -6.9008002281188965,
        6.914299964904785,
        0.11249999701976776
      ],
      "type": "VEC3",
      "bufferView": 0,
      "byteOffset": 5760
    },
    {
      "name": "KC_010_1_0_normals",
      "componentType": 5126,
      "count": 24,
      "min": [
        -1,
        -1,
        -1
      ],
      "max": [
        1,
        1,
        1
      ],
      "type": "VEC3",
      "bufferView": 1,
      "byteOffset": 5760
    },
    {
      "name": "KC_010_1_0_texcoords",
      "componentType": 5126,
      "count": 24,
      "min": [
        0,
        0
      ],
      "max": [
        1,
        1
      ],
      "type": "VEC2",
      "bufferView": 2,
      "byteOffset": 3840
    },
    {
      "name": "KC_010_1_0_indices",
      "componentType": 5123,
      "count": 36,
      "min": [
        0
      ],
      "max": [
        23
      ],
      "type": "SCALAR",
      "bufferView": 3,
      "byteOffset": 1308
    }
  ],
  "asset": {
    "generator": "obj2gltf",
    "version": "2.0"
  },
  "buffers": [
    {
      "name": "Gan0429",
      "byteLength": 73792,
      "uri": "data:application/octet-stream;base64,"
    }
  ],
  "bufferViews": [
    {
      "name": "bufferView_0",
      "buffer": 0,
      "byteLength": 6048,
      "byteOffset": 0,
      "byteStride": 12,
      "target": 34962
    },
    {
      "name": "bufferView_1",
      "buffer": 0,
      "byteLength": 6048,
      "byteOffset": 6048,
      "byteStride": 12,
      "target": 34962
    },
    {
      "name": "bufferView_2",
      "buffer": 0,
      "byteLength": 4032,
      "byteOffset": 12096,
      "byteStride": 8,
      "target": 34962
    },
    {
      "name": "bufferView_3",
      "buffer": 0,
      "byteLength": 1380,
      "byteOffset": 16128,
      "target": 34963
    },
    {
      "buffer": 0,
      "byteOffset": 17508,
      "byteLength": 56283
    }
  ],
  "images": [
    {
      "name": "TianfuAirport_Biaozhigan",
      "mimeType": "image/jpeg",
      "bufferView": 4
    }
  ],
  "materials": [
    {
      "name": "wire_008061138",
      "pbrMetallicRoughness": {
        "baseColorFactor": [
          0.0314,
          0.2392,
          0.5412,
          1
        ],
        "metallicFactor": 0,
        "roughnessFactor": 0.968
      },
      "emissiveFactor": [
        0,
        0,
        0
      ],
      "alphaMode": "OPAQUE",
      "doubleSided": false
    },
    {
      "name": "material_2",
      "pbrMetallicRoughness": {
        "baseColorTexture": {
          "index": 0
        },
        "baseColorFactor": [
          1,
          1,
          1,
          1
        ],
        "metallicFactor": 0,
        "roughnessFactor": 0.97
      },
      "emissiveFactor": [
        0,
        0,
        0
      ],
      "alphaMode": "OPAQUE",
      "doubleSided": false
    }
  ],
  "meshes": [
    {
      "name": "KC_001_1",
      "primitives": [
        {
          "attributes": {
            "POSITION": 0,
            "NORMAL": 1,
            "TEXCOORD_0": 2
          },
          "indices": 3,
          "material": 0,
          "mode": 4
        }
      ]
    },
    {
      "name": "Gan_1",
      "primitives": [
        {
          "attributes": {
            "POSITION": 4,
            "NORMAL": 5,
            "TEXCOORD_0": 6
          },
          "indices": 7,
          "material": 1,
          "mode": 4
        }
      ]
    },
    {
      "name": "KC_002_1",
      "primitives": [
        {
          "attributes": {
            "POSITION": 8,
            "NORMAL": 9,
            "TEXCOORD_0": 10
          },
          "indices": 11,
          "material": 0,
          "mode": 4
        }
      ]
    },
    {
      "name": "KC_003_1",
      "primitives": [
        {
          "attributes": {
            "POSITION": 12,
            "NORMAL": 13,
            "TEXCOORD_0": 14
          },
          "indices": 15,
          "material": 0,
          "mode": 4
        }
      ]
    },
    {
      "name": "KC_004_1",
      "primitives": [
        {
          "attributes": {
            "POSITION": 16,
            "NORMAL": 17,
            "TEXCOORD_0": 18
          },
          "indices": 19,
          "material": 0,
          "mode": 4
        }
      ]
    },
    {
      "name": "KC_005_1",
      "primitives": [
        {
          "attributes": {
            "POSITION": 20,
            "NORMAL": 21,
            "TEXCOORD_0": 22
          },
          "indices": 23,
          "material": 0,
          "mode": 4
        }
      ]
    },
    {
      "name": "KC_006_1",
      "primitives": [
        {
          "attributes": {
            "POSITION": 24,
            "NORMAL": 25,
            "TEXCOORD_0": 26
          },
          "indices": 27,
          "material": 0,
          "mode": 4
        }
      ]
    },
    {
      "name": "KC_007_1",
      "primitives": [
        {
          "attributes": {
            "POSITION": 28,
            "NORMAL": 29,
            "TEXCOORD_0": 30
          },
          "indices": 31,
          "material": 0,
          "mode": 4
        }
      ]
    },
    {
      "name": "KC_008_1",
      "primitives": [
        {
          "attributes": {
            "POSITION": 32,
            "NORMAL": 33,
            "TEXCOORD_0": 34
          },
          "indices": 35,
          "material": 0,
          "mode": 4
        }
      ]
    },
    {
      "name": "KC_009_1",
      "primitives": [
        {
          "attributes": {
            "POSITION": 36,
            "NORMAL": 37,
            "TEXCOORD_0": 38
          },
          "indices": 39,
          "material": 0,
          "mode": 4
        }
      ]
    },
    {
      "name": "KC_010_1",
      "primitives": [
        {
          "attributes": {
            "POSITION": 40,
            "NORMAL": 41,
            "TEXCOORD_0": 42
          },
          "indices": 43,
          "material": 0,
          "mode": 4
        }
      ]
    }
  ],
  "nodes": [
    {
      "name": "KC_001",
      "mesh": 0
    },
    {
      "name": "Gan",
      "mesh": 1
    },
    {
      "name": "KC_002",
      "mesh": 2
    },
    {
      "name": "KC_003",
      "mesh": 3
    },
    {
      "name": "KC_004",
      "mesh": 4
    },
    {
      "name": "KC_005",
      "mesh": 5
    },
    {
      "name": "KC_006",
      "mesh": 6
    },
    {
      "name": "KC_007",
      "mesh": 7
    },
    {
      "name": "KC_008",
      "mesh": 8
    },
    {
      "name": "KC_009",
      "mesh": 9
    },
    {
      "name": "KC_010",
      "mesh": 10
    }
  ],
  "samplers": [
    {
      "magFilter": 9729,
      "minFilter": 9986,
      "wrapS": 10497,
      "wrapT": 10497
    }
  ],
  "scene": 0,
  "scenes": [
    {
      "nodes": [
        0,
        1,
        2,
        3,
        4,
        5,
        6,
        7,
        8,
        9,
        10
      ]
    }
  ],
  "textures": [
    {
      "name": "TianfuAirport_Biaozhigan",
      "sampler": 0,
      "source": 0
    }
  ]
}
