{
  "accessors": [
    {
      "name": "Object308834062_1_0_positions",
      "componentType": 5126,
      "count": 638,
      "min": [
        -0.11630000174045563,
        0,
        -0.4009999930858612
      ],
      "max": [
        0.11630000174045563,
        0.4090999960899353,
        0.5540000200271606
      ],
      "type": "VEC3",
      "bufferView": 0,
      "byteOffset": 0
    },
    {
      "name": "Object308834062_1_0_normals",
      "componentType": 5126,
      "count": 638,
      "min": [
        -0.9999994039535522,
        -1,
        -0.9999997019767761
      ],
      "max": [
        0.9999994039535522,
        1,
        0.9999997019767761
      ],
      "type": "VEC3",
      "bufferView": 1,
      "byteOffset": 0
    },
    {
      "name": "Object308834062_1_0_texcoords",
      "componentType": 5126,
      "count": 638,
      "min": [
        0.49239999055862427,
        0.030799999833106995
      ],
      "max": [
        0.9944999814033508,
        0.9830999970436096
      ],
      "type": "VEC2",
      "bufferView": 2,
      "byteOffset": 0
    },
    {
      "name": "Object308834062_1_0_indices",
      "componentType": 5123,
      "count": 1056,
      "min": [
        0
      ],
      "max": [
        637
      ],
      "type": "SCALAR",
      "bufferView": 3,
      "byteOffset": 0
    }
  ],
  "asset": {
    "generator": "obj2gltf",
    "version": "2.0"
  },
  "buffers": [
    {
      "name": "shexiangtou",
      "byteLength": 63012,
      "uri": "data:application/octet-stream;base64,"
    }
  ],
  "bufferViews": [
    {
      "name": "bufferView_0",
      "buffer": 0,
      "byteLength": 7656,
      "byteOffset": 0,
      "byteStride": 12,
      "target": 34962
    },
    {
      "name": "bufferView_1",
      "buffer": 0,
      "byteLength": 7656,
      "byteOffset": 7656,
      "byteStride": 12,
      "target": 34962
    },
    {
      "name": "bufferView_2",
      "buffer": 0,
      "byteLength": 5104,
      "byteOffset": 15312,
      "byteStride": 8,
      "target": 34962
    },
    {
      "name": "bufferView_3",
      "buffer": 0,
      "byteLength": 2112,
      "byteOffset": 20416,
      "target": 34963
    },
    {
      "buffer": 0,
      "byteOffset": 22528,
      "byteLength": 40481
    }
  ],
  "images": [
    {
      "name": "Honglvdeng004",
      "mimeType": "image/jpeg",
      "bufferView": 4
    }
  ],
  "materials": [
    {
      "name": "Material__4587",
      "pbrMetallicRoughness": {
        "baseColorTexture": {
          "index": 0
        },
        "baseColorFactor": [
          1,
          1,
          1,
          1
        ],
        "metallicFactor": 0,
        "roughnessFactor": 0.99
      },
      "emissiveFactor": [
        0,
        0,
        0
      ],
      "alphaMode": "OPAQUE",
      "doubleSided": false
    }
  ],
  "meshes": [
    {
      "name": "Object308834062_1",
      "primitives": [
        {
          "attributes": {
            "POSITION": 0,
            "NORMAL": 1,
            "TEXCOORD_0": 2
          },
          "indices": 3,
          "material": 0,
          "mode": 4
        }
      ]
    }
  ],
  "nodes": [
    {
      "name": "Object308834062",
      "mesh": 0
    }
  ],
  "samplers": [
    {
      "magFilter": 9729,
      "minFilter": 9986,
      "wrapS": 10497,
      "wrapT": 10497
    }
  ],
  "scene": 0,
  "scenes": [
    {
      "nodes": [
        0
      ]
    }
  ],
  "textures": [
    {
      "name": "Honglvdeng004",
      "sampler": 0,
      "source": 0
    }
  ]
}
