{
  "accessors": [
    {
      "name": "1_1_0_positions",
      "componentType": 5126,
      "count": 28,
      "min": [
        -8.799799919128418,
        8.76449966430664,
        0.22210000455379486
      ],
      "max": [
        -8.358099937438965,
        9.206100463867188,
        0.22210000455379486
      ],
      "type": "VEC3",
      "bufferView": 0,
      "byteOffset": 0
    },
    {
      "name": "1_1_0_normals",
      "componentType": 5126,
      "count": 28,
      "min": [
        0,
        0,
        1
      ],
      "max": [
        0,
        0,
        1
      ],
      "type": "VEC3",
      "bufferView": 1,
      "byteOffset": 0
    },
    {
      "name": "1_1_0_texcoords",
      "componentType": 5126,
      "count": 28,
      "min": [
        0.013700000010430813,
        0.013700000010430813
      ],
      "max": [
        0.986299991607666,
        0.986299991607666
      ],
      "type": "VEC2",
      "bufferView": 2,
      "byteOffset": 0
    },
    {
      "name": "1_1_0_indices",
      "componentType": 5123,
      "count": 78,
      "min": [
        0
      ],
      "max": [
        27
      ],
      "type": "SCALAR",
      "bufferView": 3,
      "byteOffset": 0
    },
    {
      "name": "2_1_0_positions",
      "componentType": 5126,
      "count": 28,
      "min": [
        -8.799799919128418,
        8.227700233459473,
        0.22210000455379486
      ],
      "max": [
        -8.358099937438965,
        8.669400215148926,
        0.22210000455379486
      ],
      "type": "VEC3",
      "bufferView": 0,
      "byteOffset": 336
    },
    {
      "name": "2_1_0_normals",
      "componentType": 5126,
      "count": 28,
      "min": [
        0,
        0,
        1
      ],
      "max": [
        0,
        0,
        1
      ],
      "type": "VEC3",
      "bufferView": 1,
      "byteOffset": 336
    },
    {
      "name": "2_1_0_texcoords",
      "componentType": 5126,
      "count": 28,
      "min": [
        0.014800000004470348,
        0.014800000004470348
      ],
      "max": [
        0.9851999878883362,
        0.9851999878883362
      ],
      "type": "VEC2",
      "bufferView": 2,
      "byteOffset": 224
    },
    {
      "name": "2_1_0_indices",
      "componentType": 5123,
      "count": 78,
      "min": [
        0
      ],
      "max": [
        27
      ],
      "type": "SCALAR",
      "bufferView": 3,
      "byteOffset": 156
    },
    {
      "name": "3_1_0_positions",
      "componentType": 5126,
      "count": 28,
      "min": [
        -8.799799919128418,
        7.685100078582764,
        0.22210000455379486
      ],
      "max": [
        -8.358099937438965,
        8.126700401306152,
        0.22210000455379486
      ],
      "type": "VEC3",
      "bufferView": 0,
      "byteOffset": 672
    },
    {
      "name": "3_1_0_normals",
      "componentType": 5126,
      "count": 28,
      "min": [
        0,
        0,
        1
      ],
      "max": [
        0,
        0,
        1
      ],
      "type": "VEC3",
      "bufferView": 1,
      "byteOffset": 672
    },
    {
      "name": "3_1_0_texcoords",
      "componentType": 5126,
      "count": 28,
      "min": [
        0.014800000004470348,
        0.014800000004470348
      ],
      "max": [
        0.9851999878883362,
        0.9851999878883362
      ],
      "type": "VEC2",
      "bufferView": 2,
      "byteOffset": 448
    },
    {
      "name": "3_1_0_indices",
      "componentType": 5123,
      "count": 78,
      "min": [
        0
      ],
      "max": [
        27
      ],
      "type": "SCALAR",
      "bufferView": 3,
      "byteOffset": 312
    },
    {
      "name": "Line1087_1_0_positions",
      "componentType": 5126,
      "count": 447,
      "min": [
        -8.781299591064453,
        0,
        -0.5611000061035156
      ],
      "max": [
        0.3634999990463257,
        8.813699722290039,
        0.1453000009059906
      ],
      "type": "VEC3",
      "bufferView": 0,
      "byteOffset": 1008
    },
    {
      "name": "Line1087_1_0_normals",
      "componentType": 5126,
      "count": 447,
      "min": [
        -0.9999998807907104,
        -1,
        -0.9999998807907104
      ],
      "max": [
        0.9999998807907104,
        1,
        0.9999998807907104
      ],
      "type": "VEC3",
      "bufferView": 1,
      "byteOffset": 1008
    },
    {
      "name": "Line1087_1_0_texcoords",
      "componentType": 5126,
      "count": 447,
      "min": [
        -0.8259999752044678,
        -18.92970085144043
      ],
      "max": [
        1.835800051689148,
        6.570400238037109
      ],
      "type": "VEC2",
      "bufferView": 2,
      "byteOffset": 672
    },
    {
      "name": "Line1087_1_0_indices",
      "componentType": 5123,
      "count": 1527,
      "min": [
        0
      ],
      "max": [
        446
      ],
      "type": "SCALAR",
      "bufferView": 3,
      "byteOffset": 468
    },
    {
      "name": "Line1087_1_1_positions",
      "componentType": 5126,
      "count": 340,
      "min": [
        -8.923199653625488,
        7.5625,
        0.01759999990463257
      ],
      "max": [
        -8.207799911499023,
        9.342599868774414,
        0.5611000061035156
      ],
      "type": "VEC3",
      "bufferView": 0,
      "byteOffset": 6372
    },
    {
      "name": "Line1087_1_1_normals",
      "componentType": 5126,
      "count": 340,
      "min": [
        -0.9999998807907104,
        -1,
        -0.9999998807907104
      ],
      "max": [
        0.9999998807907104,
        1,
        0.9999998807907104
      ],
      "type": "VEC3",
      "bufferView": 1,
      "byteOffset": 6372
    },
    {
      "name": "Line1087_1_1_texcoords",
      "componentType": 5126,
      "count": 340,
      "min": [
        -0.6769000291824341,
        -2.428299903869629
      ],
      "max": [
        1.676900029182434,
        3.428299903869629
      ],
      "type": "VEC2",
      "bufferView": 2,
      "byteOffset": 4248
    },
    {
      "name": "Line1087_1_1_indices",
      "componentType": 5123,
      "count": 750,
      "min": [
        0
      ],
      "max": [
        339
      ],
      "type": "SCALAR",
      "bufferView": 3,
      "byteOffset": 3524
    },
    {
      "name": "Line1087_1_2_positions",
      "componentType": 5126,
      "count": 4,
      "min": [
        -8.843199729919434,
        7.651400089263916,
        0.2134999930858612
      ],
      "max": [
        -8.287599563598633,
        9.253700256347656,
        0.21379999816417694
      ],
      "type": "VEC3",
      "bufferView": 0,
      "byteOffset": 10452
    },
    {
      "name": "Line1087_1_2_normals",
      "componentType": 5126,
      "count": 4,
      "min": [
        0.0004999999655410647,
        0,
        0.9999998807907104
      ],
      "max": [
        0.0004999999655410647,
        0,
        0.9999998807907104
      ],
      "type": "VEC3",
      "bufferView": 1,
      "byteOffset": 10452
    },
    {
      "name": "Line1087_1_2_texcoords",
      "componentType": 5126,
      "count": 4,
      "min": [
        0.6101999878883362,
        0
      ],
      "max": [
        1.0019999742507935,
        0.9914000034332275
      ],
      "type": "VEC2",
      "bufferView": 2,
      "byteOffset": 6968
    },
    {
      "name": "Line1087_1_2_indices",
      "componentType": 5123,
      "count": 6,
      "min": [
        0
      ],
      "max": [
        3
      ],
      "type": "SCALAR",
      "bufferView": 3,
      "byteOffset": 5024
    }
  ],
  "asset": {
    "generator": "obj2gltf",
    "version": "2.0"
  },
  "buffers": [
    {
      "name": "honglvdeng1113",
      "byteLength": 503744,
      "uri": "data:application/octet-stream;base64,"
    }
  ],
  "bufferViews": [
    {
      "name": "bufferView_0",
      "buffer": 0,
      "byteLength": 10500,
      "byteOffset": 0,
      "byteStride": 12,
      "target": 34962
    },
    {
      "name": "bufferView_1",
      "buffer": 0,
      "byteLength": 10500,
      "byteOffset": 10500,
      "byteStride": 12,
      "target": 34962
    },
    {
      "name": "bufferView_2",
      "buffer": 0,
      "byteLength": 7000,
      "byteOffset": 21000,
      "byteStride": 8,
      "target": 34962
    },
    {
      "name": "bufferView_3",
      "buffer": 0,
      "byteLength": 5036,
      "byteOffset": 28000,
      "target": 34963
    },
    {
      "buffer": 0,
      "byteOffset": 33036,
      "byteLength": 102098
    },
    {
      "buffer": 0,
      "byteOffset": 135134,
      "byteLength": 109259
    },
    {
      "buffer": 0,
      "byteOffset": 244393,
      "byteLength": 97068
    },
    {
      "buffer": 0,
      "byteOffset": 341461,
      "byteLength": 56283
    },
    {
      "buffer": 0,
      "byteOffset": 397744,
      "byteLength": 24209
    },
    {
      "buffer": 0,
      "byteOffset": 421953,
      "byteLength": 81789
    }
  ],
  "images": [
    {
      "name": "1",
      "mimeType": "image/jpeg",
      "bufferView": 4
    },
    {
      "name": "2 ",
      "mimeType": "image/jpeg",
      "bufferView": 5
    },
    {
      "name": "3 ",
      "mimeType": "image/jpeg",
      "bufferView": 6
    },
    {
      "name": "Wuxi_Fair_Wall001",
      "mimeType": "image/jpeg",
      "bufferView": 7
    },
    {
      "name": "honglvdeng_Black1113_001",
      "mimeType": "image/jpeg",
      "bufferView": 8
    },
    {
      "name": "honglvdeng1113_002",
      "mimeType": "image/jpeg",
      "bufferView": 9
    }
  ],
  "materials": [
    {
      "name": "1",
      "pbrMetallicRoughness": {
        "baseColorTexture": {
          "index": 0
        },
        "baseColorFactor": [
          1,
          1,
          1,
          1
        ],
        "metallicFactor": 0,
        "roughnessFactor": 0.99
      },
      "emissiveFactor": [
        0,
        0,
        0
      ],
      "alphaMode": "OPAQUE",
      "doubleSided": false
    },
    {
      "name": "2",
      "pbrMetallicRoughness": {
        "baseColorTexture": {
          "index": 1
        },
        "baseColorFactor": [
          1,
          1,
          1,
          1
        ],
        "metallicFactor": 0,
        "roughnessFactor": 0.99
      },
      "emissiveFactor": [
        0,
        0,
        0
      ],
      "alphaMode": "OPAQUE",
      "doubleSided": false
    },
    {
      "name": "3",
      "pbrMetallicRoughness": {
        "baseColorTexture": {
          "index": 2
        },
        "baseColorFactor": [
          1,
          1,
          1,
          1
        ],
        "metallicFactor": 0,
        "roughnessFactor": 0.99
      },
      "emissiveFactor": [
        0,
        0,
        0
      ],
      "alphaMode": "OPAQUE",
      "doubleSided": false
    },
    {
      "name": "Standardmaterial_19",
      "pbrMetallicRoughness": {
        "baseColorTexture": {
          "index": 3
        },
        "baseColorFactor": [
          1,
          1,
          1,
          1
        ],
        "metallicFactor": 0,
        "roughnessFactor": 0.99
      },
      "emissiveFactor": [
        0,
        0,
        0
      ],
      "alphaMode": "OPAQUE",
      "doubleSided": false
    },
    {
      "name": "Standardmaterial_21",
      "pbrMetallicRoughness": {
        "baseColorTexture": {
          "index": 4
        },
        "baseColorFactor": [
          1,
          1,
          1,
          1
        ],
        "metallicFactor": 0,
        "roughnessFactor": 0.99
      },
      "emissiveFactor": [
        0,
        0,
        0
      ],
      "alphaMode": "OPAQUE",
      "doubleSided": false
    },
    {
      "name": "Standardmaterial_20",
      "pbrMetallicRoughness": {
        "baseColorTexture": {
          "index": 5
        },
        "baseColorFactor": [
          1,
          1,
          1,
          1
        ],
        "metallicFactor": 0,
        "roughnessFactor": 0.99
      },
      "emissiveFactor": [
        0,
        0,
        0
      ],
      "alphaMode": "OPAQUE",
      "doubleSided": false
    }
  ],
  "meshes": [
    {
      "name": "1_1",
      "primitives": [
        {
          "attributes": {
            "POSITION": 0,
            "NORMAL": 1,
            "TEXCOORD_0": 2
          },
          "indices": 3,
          "material": 0,
          "mode": 4
        }
      ]
    },
    {
      "name": "2_1",
      "primitives": [
        {
          "attributes": {
            "POSITION": 4,
            "NORMAL": 5,
            "TEXCOORD_0": 6
          },
          "indices": 7,
          "material": 1,
          "mode": 4
        }
      ]
    },
    {
      "name": "3_1",
      "primitives": [
        {
          "attributes": {
            "POSITION": 8,
            "NORMAL": 9,
            "TEXCOORD_0": 10
          },
          "indices": 11,
          "material": 2,
          "mode": 4
        }
      ]
    },
    {
      "name": "Line1087_1",
      "primitives": [
        {
          "attributes": {
            "POSITION": 12,
            "NORMAL": 13,
            "TEXCOORD_0": 14
          },
          "indices": 15,
          "material": 3,
          "mode": 4
        },
        {
          "attributes": {
            "POSITION": 16,
            "NORMAL": 17,
            "TEXCOORD_0": 18
          },
          "indices": 19,
          "material": 4,
          "mode": 4
        },
        {
          "attributes": {
            "POSITION": 20,
            "NORMAL": 21,
            "TEXCOORD_0": 22
          },
          "indices": 23,
          "material": 5,
          "mode": 4
        }
      ]
    }
  ],
  "nodes": [
    {
      "name": "1",
      "mesh": 0
    },
    {
      "name": "2",
      "mesh": 1
    },
    {
      "name": "3",
      "mesh": 2
    },
    {
      "name": "Line1087",
      "mesh": 3
    }
  ],
  "samplers": [
    {
      "magFilter": 9729,
      "minFilter": 9986,
      "wrapS": 10497,
      "wrapT": 10497
    }
  ],
  "scene": 0,
  "scenes": [
    {
      "nodes": [
        0,
        1,
        2,
        3
      ]
    }
  ],
  "textures": [
    {
      "name": "1",
      "sampler": 0,
      "source": 0
    },
    {
      "name": "2 ",
      "sampler": 0,
      "source": 1
    },
    {
      "name": "3 ",
      "sampler": 0,
      "source": 2
    },
    {
      "name": "Wuxi_Fair_Wall001",
      "sampler": 0,
      "source": 3
    },
    {
      "name": "honglvdeng_Black1113_001",
      "sampler": 0,
      "source": 4
    },
    {
      "name": "honglvdeng1113_002",
      "sampler": 0,
      "source": 5
    }
  ]
}
