{
  "accessors": [
    {
      "name": "Box001_1_0_positions",
      "componentType": 5126,
      "count": 56,
      "min": [
        -0.6970000267028809,
        0,
        -0.056299999356269836
      ],
      "max": [
        0.05609999969601631,
        10.695599555969238,
        0.056299999356269836
      ],
      "type": "VEC3",
      "bufferView": 0,
      "byteOffset": 0
    },
    {
      "name": "Box001_1_0_normals",
      "componentType": 5126,
      "count": 56,
      "min": [
        -0.9999942183494568,
        -0.948723316192627,
        -1
      ],
      "max": [
        0.9999942183494568,
        0.948723316192627,
        1
      ],
      "type": "VEC3",
      "bufferView": 1,
      "byteOffset": 0
    },
    {
      "name": "Box001_1_0_texcoords",
      "componentType": 5126,
      "count": 56,
      "min": [
        0.026599999517202377,
        -6.0680999755859375
      ],
      "max": [
        0.9786999821662903,
        0.9991999864578247
      ],
      "type": "VEC2",
      "bufferView": 2,
      "byteOffset": 0
    },
    {
      "name": "Box001_1_0_indices",
      "componentType": 5123,
      "count": 288,
      "min": [
        0
      ],
      "max": [
        55
      ],
      "type": "SCALAR",
      "bufferView": 3,
      "byteOffset": 0
    },
    {
      "name": "Box001_1_1_positions",
      "componentType": 5126,
      "count": 26,
      "min": [
        -1.426300048828125,
        10.702400207519531,
        -0.15160000324249268
      ],
      "max": [
        -0.6801000237464905,
        10.899999618530273,
        0.16030000150203705
      ],
      "type": "VEC3",
      "bufferView": 0,
      "byteOffset": 672
    },
    {
      "name": "Box001_1_1_normals",
      "componentType": 5126,
      "count": 26,
      "min": [
        -0.585713267326355,
        -0.021499788388609886,
        -0.008400325663387775
      ],
      "max": [
        0.7062930464744568,
        0.9983386993408203,
        0.7180566191673279
      ],
      "type": "VEC3",
      "bufferView": 1,
      "byteOffset": 672
    },
    {
      "name": "Box001_1_1_texcoords",
      "componentType": 5126,
      "count": 26,
      "min": [
        0.7170000076293945,
        0.04809999838471413
      ],
      "max": [
        0.9508000016212463,
        0.6098999977111816
      ],
      "type": "VEC2",
      "bufferView": 2,
      "byteOffset": 448
    },
    {
      "name": "Box001_1_1_indices",
      "componentType": 5123,
      "count": 66,
      "min": [
        0
      ],
      "max": [
        25
      ],
      "type": "SCALAR",
      "bufferView": 3,
      "byteOffset": 576
    },
    {
      "name": "Box001_1_2_positions",
      "componentType": 5126,
      "count": 82,
      "min": [
        -1.440000057220459,
        10.638299942016602,
        -0.15160000324249268
      ],
      "max": [
        -0.6801000237464905,
        10.899999618530273,
        0.16030000150203705
      ],
      "type": "VEC3",
      "bufferView": 0,
      "byteOffset": 984
    },
    {
      "name": "Box001_1_2_normals",
      "componentType": 5126,
      "count": 82,
      "min": [
        -0.9643012285232544,
        -0.965928852558136,
        -1
      ],
      "max": [
        0.9657792448997498,
        0.2584003210067749,
        1
      ],
      "type": "VEC3",
      "bufferView": 1,
      "byteOffset": 984
    },
    {
      "name": "Box001_1_2_texcoords",
      "componentType": 5126,
      "count": 82,
      "min": [
        0.7581999897956848,
        0.000699999975040555
      ],
      "max": [
        0.8601999878883362,
        0.24560000002384186
      ],
      "type": "VEC2",
      "bufferView": 2,
      "byteOffset": 656
    },
    {
      "name": "Box001_1_2_indices",
      "componentType": 5123,
      "count": 210,
      "min": [
        0
      ],
      "max": [
        81
      ],
      "type": "SCALAR",
      "bufferView": 3,
      "byteOffset": 708
    }
  ],
  "asset": {
    "generator": "obj2gltf",
    "version": "2.0"
  },
  "buffers": [
    {
      "name": "Ludeng",
      "byteLength": 869064,
      "uri": "data:application/octet-stream;base64,"
    }
  ],
  "bufferViews": [
    {
      "name": "bufferView_0",
      "buffer": 0,
      "byteLength": 1968,
      "byteOffset": 0,
      "byteStride": 12,
      "target": 34962
    },
    {
      "name": "bufferView_1",
      "buffer": 0,
      "byteLength": 1968,
      "byteOffset": 1968,
      "byteStride": 12,
      "target": 34962
    },
    {
      "name": "bufferView_2",
      "buffer": 0,
      "byteLength": 1312,
      "byteOffset": 3936,
      "byteStride": 8,
      "target": 34962
    },
    {
      "name": "bufferView_3",
      "buffer": 0,
      "byteLength": 1128,
      "byteOffset": 5248,
      "target": 34963
    },
    {
      "buffer": 0,
      "byteOffset": 6376,
      "byteLength": 42466
    },
    {
      "buffer": 0,
      "byteOffset": 48842,
      "byteLength": 87528
    },
    {
      "buffer": 0,
      "byteOffset": 136370,
      "byteLength": 732692
    }
  ],
  "images": [
    {
      "name": "XiangYang_WWH_TT_09",
      "mimeType": "image/jpeg",
      "bufferView": 4
    },
    {
      "name": "XiangYang_WWH_TT_07",
      "bufferView": 5
    },
    {
      "name": "XiangYang_WWH_TT_05",
      "mimeType": "image/jpeg",
      "bufferView": 6
    }
  ],
  "materials": [
    {
      "name": "Material__2143340204",
      "pbrMetallicRoughness": {
        "baseColorTexture": {
          "index": 0
        },
        "baseColorFactor": [
          1,
          1,
          1,
          1
        ],
        "metallicFactor": 0,
        "roughnessFactor": 0.99
      },
      "emissiveFactor": [
        0.4116,
        0.4116,
        0.4116
      ],
      "alphaMode": "OPAQUE",
      "doubleSided": false
    },
    {
      "name": "Material__233",
      "pbrMetallicRoughness": {
        "baseColorTexture": {
          "index": 1
        },
        "baseColorFactor": [
          1,
          1,
          1,
          1
        ],
        "metallicFactor": 0,
        "roughnessFactor": 0.99
      },
      "emissiveFactor": [
        0,
        0,
        0
      ],
      "alphaMode": "OPAQUE",
      "doubleSided": false
    },
    {
      "name": "Material__186",
      "pbrMetallicRoughness": {
        "baseColorTexture": {
          "index": 2
        },
        "baseColorFactor": [
          1,
          1,
          1,
          1
        ],
        "metallicFactor": 0,
        "roughnessFactor": 0.99
      },
      "emissiveFactor": [
        0,
        0,
        0
      ],
      "alphaMode": "OPAQUE",
      "doubleSided": false
    }
  ],
  "meshes": [
    {
      "name": "Box001_1",
      "primitives": [
        {
          "attributes": {
            "POSITION": 0,
            "NORMAL": 1,
            "TEXCOORD_0": 2
          },
          "indices": 3,
          "material": 0,
          "mode": 4
        },
        {
          "attributes": {
            "POSITION": 4,
            "NORMAL": 5,
            "TEXCOORD_0": 6
          },
          "indices": 7,
          "material": 1,
          "mode": 4
        },
        {
          "attributes": {
            "POSITION": 8,
            "NORMAL": 9,
            "TEXCOORD_0": 10
          },
          "indices": 11,
          "material": 2,
          "mode": 4
        }
      ]
    }
  ],
  "nodes": [
    {
      "name": "Box001",
      "mesh": 0
    }
  ],
  "samplers": [
    {
      "magFilter": 9729,
      "minFilter": 9986,
      "wrapS": 10497,
      "wrapT": 10497
    }
  ],
  "scene": 0,
  "scenes": [
    {
      "nodes": [
        0
      ]
    }
  ],
  "textures": [
    {
      "name": "XiangYang_WWH_TT_09",
      "sampler": 0,
      "source": 0
    },
    {
      "name": "XiangYang_WWH_TT_07",
      "sampler": 0,
      "source": 1
    },
    {
      "name": "XiangYang_WWH_TT_05",
      "sampler": 0,
      "source": 2
    }
  ]
}
