{
  "accessors": [
    {
      "name": "Shang_1_0_positions",
      "componentType": 5126,
      "count": 28,
      "min": [
        -0.07989999651908875,
        0.09109999984502792,
        -0.07569999992847443
      ],
      "max": [
        0.08410000056028366,
        0.25519999861717224,
        -0.07569999992847443
      ],
      "type": "VEC3",
      "bufferView": 0,
      "byteOffset": 0
    },
    {
      "name": "Shang_1_0_normals",
      "componentType": 5126,
      "count": 28,
      "min": [
        0,
        0,
        1
      ],
      "max": [
        0,
        0,
        1
      ],
      "type": "VEC3",
      "bufferView": 1,
      "byteOffset": 0
    },
    {
      "name": "Shang_1_0_texcoords",
      "componentType": 5126,
      "count": 28,
      "min": [
        0.01590000092983246,
        0.01600000075995922
      ],
      "max": [
        0.9868000149726868,
        0.9868000149726868
      ],
      "type": "VEC2",
      "bufferView": 2,
      "byteOffset": 0
    },
    {
      "name": "Shang_1_0_indices",
      "componentType": 5123,
      "count": 78,
      "min": [
        0
      ],
      "max": [
        27
      ],
      "type": "SCALAR",
      "bufferView": 3,
      "byteOffset": 0
    },
    {
      "name": "Zhong_1_0_positions",
      "componentType": 5126,
      "count": 28,
      "min": [
        -0.07989999651908875,
        -0.10570000112056732,
        -0.07569999992847443
      ],
      "max": [
        0.08410000056028366,
        0.058400001376867294,
        -0.07569999992847443
      ],
      "type": "VEC3",
      "bufferView": 0,
      "byteOffset": 336
    },
    {
      "name": "Zhong_1_0_normals",
      "componentType": 5126,
      "count": 28,
      "min": [
        0,
        0,
        1
      ],
      "max": [
        0,
        0,
        1
      ],
      "type": "VEC3",
      "bufferView": 1,
      "byteOffset": 336
    },
    {
      "name": "Zhong_1_0_texcoords",
      "componentType": 5126,
      "count": 28,
      "min": [
        0.01590000092983246,
        0.01600000075995922
      ],
      "max": [
        0.9868000149726868,
        0.9868000149726868
      ],
      "type": "VEC2",
      "bufferView": 2,
      "byteOffset": 224
    },
    {
      "name": "Zhong_1_0_indices",
      "componentType": 5123,
      "count": 78,
      "min": [
        0
      ],
      "max": [
        27
      ],
      "type": "SCALAR",
      "bufferView": 3,
      "byteOffset": 156
    },
    {
      "name": "Xia_1_0_positions",
      "componentType": 5126,
      "count": 28,
      "min": [
        -0.07989999651908875,
        -0.3061999976634979,
        -0.07569999992847443
      ],
      "max": [
        0.08410000056028366,
        -0.1421000063419342,
        -0.07569999992847443
      ],
      "type": "VEC3",
      "bufferView": 0,
      "byteOffset": 672
    },
    {
      "name": "Xia_1_0_normals",
      "componentType": 5126,
      "count": 28,
      "min": [
        0,
        0,
        1
      ],
      "max": [
        0,
        0,
        1
      ],
      "type": "VEC3",
      "bufferView": 1,
      "byteOffset": 672
    },
    {
      "name": "Xia_1_0_texcoords",
      "componentType": 5126,
      "count": 28,
      "min": [
        0.01590000092983246,
        0.01600000075995922
      ],
      "max": [
        0.9868000149726868,
        0.9868000149726868
      ],
      "type": "VEC2",
      "bufferView": 2,
      "byteOffset": 448
    },
    {
      "name": "Xia_1_0_indices",
      "componentType": 5123,
      "count": 78,
      "min": [
        0
      ],
      "max": [
        27
      ],
      "type": "SCALAR",
      "bufferView": 3,
      "byteOffset": 312
    },
    {
      "name": "Box451_1_0_positions",
      "componentType": 5126,
      "count": 4,
      "min": [
        -0.09470000118017197,
        -0.3176000118255615,
        -0.07959999889135361
      ],
      "max": [
        0.09650000184774399,
        0.271699994802475,
        -0.07959999889135361
      ],
      "type": "VEC3",
      "bufferView": 0,
      "byteOffset": 1008
    },
    {
      "name": "Box451_1_0_normals",
      "componentType": 5126,
      "count": 4,
      "min": [
        0,
        0,
        1
      ],
      "max": [
        0,
        0,
        1
      ],
      "type": "VEC3",
      "bufferView": 1,
      "byteOffset": 1008
    },
    {
      "name": "Box451_1_0_texcoords",
      "componentType": 5126,
      "count": 4,
      "min": [
        0.6640999913215637,
        0
      ],
      "max": [
        0.9883999824523926,
        1
      ],
      "type": "VEC2",
      "bufferView": 2,
      "byteOffset": 672
    },
    {
      "name": "Box451_1_0_indices",
      "componentType": 5123,
      "count": 6,
      "min": [
        0
      ],
      "max": [
        3
      ],
      "type": "SCALAR",
      "bufferView": 3,
      "byteOffset": 468
    },
    {
      "name": "Box451_1_1_positions",
      "componentType": 5126,
      "count": 446,
      "min": [
        -0.13120000064373016,
        -0.34389999508857727,
        -0.09260000288486481
      ],
      "max": [
        0.1331000030040741,
        0.2964000105857849,
        0.07670000195503235
      ],
      "type": "VEC3",
      "bufferView": 0,
      "byteOffset": 1056
    },
    {
      "name": "Box451_1_1_normals",
      "componentType": 5126,
      "count": 446,
      "min": [
        -1,
        -1,
        -1
      ],
      "max": [
        1,
        1,
        1
      ],
      "type": "VEC3",
      "bufferView": 1,
      "byteOffset": 1056
    },
    {
      "name": "Box451_1_1_texcoords",
      "componentType": 5126,
      "count": 446,
      "min": [
        0.03530000150203705,
        0.002300000051036477
      ],
      "max": [
        0.6604999899864197,
        0.995199978351593
      ],
      "type": "VEC2",
      "bufferView": 2,
      "byteOffset": 704
    },
    {
      "name": "Box451_1_1_indices",
      "componentType": 5123,
      "count": 1194,
      "min": [
        0
      ],
      "max": [
        445
      ],
      "type": "SCALAR",
      "bufferView": 3,
      "byteOffset": 480
    }
  ],
  "asset": {
    "generator": "obj2gltf",
    "version": "2.0"
  },
  "buffers": [
    {
      "name": "hld0710",
      "byteLength": 424840,
      "uri": "data:application/octet-stream;base64,"
    }
  ],
  "bufferViews": [
    {
      "name": "bufferView_0",
      "buffer": 0,
      "byteLength": 6408,
      "byteOffset": 0,
      "byteStride": 12,
      "target": 34962
    },
    {
      "name": "bufferView_1",
      "buffer": 0,
      "byteLength": 6408,
      "byteOffset": 6408,
      "byteStride": 12,
      "target": 34962
    },
    {
      "name": "bufferView_2",
      "buffer": 0,
      "byteLength": 4272,
      "byteOffset": 12816,
      "byteStride": 8,
      "target": 34962
    },
    {
      "name": "bufferView_3",
      "buffer": 0,
      "byteLength": 2868,
      "byteOffset": 17088,
      "target": 34963
    },
    {
      "buffer": 0,
      "byteOffset": 19956,
      "byteLength": 125288
    },
    {
      "buffer": 0,
      "byteOffset": 145244,
      "byteLength": 242875
    },
    {
      "buffer": 0,
      "byteOffset": 388119,
      "byteLength": 36718
    }
  ],
  "images": [
    {
      "name": "Light_Black",
      "mimeType": "image/jpeg",
      "bufferView": 4
    },
    {
      "name": "XiangYang_WWH_TT_27",
      "mimeType": "image/jpeg",
      "bufferView": 5
    },
    {
      "name": "Honglvdeng006",
      "mimeType": "image/jpeg",
      "bufferView": 6
    }
  ],
  "materials": [
    {
      "name": "Shang",
      "pbrMetallicRoughness": {
        "baseColorTexture": {
          "index": 0
        },
        "baseColorFactor": [
          1,
          1,
          1,
          1
        ],
        "metallicFactor": 0,
        "roughnessFactor": 0.99
      },
      "emissiveFactor": [
        0,
        0,
        0
      ],
      "alphaMode": "OPAQUE",
      "doubleSided": false
    },
    {
      "name": "Zhong",
      "pbrMetallicRoughness": {
        "baseColorTexture": {
          "index": 0
        },
        "baseColorFactor": [
          1,
          1,
          1,
          1
        ],
        "metallicFactor": 0,
        "roughnessFactor": 0.99
      },
      "emissiveFactor": [
        0,
        0,
        0
      ],
      "alphaMode": "OPAQUE",
      "doubleSided": false
    },
    {
      "name": "Xia",
      "pbrMetallicRoughness": {
        "baseColorTexture": {
          "index": 0
        },
        "baseColorFactor": [
          1,
          1,
          1,
          1
        ],
        "metallicFactor": 0,
        "roughnessFactor": 0.99
      },
      "emissiveFactor": [
        0,
        0,
        0
      ],
      "alphaMode": "OPAQUE",
      "doubleSided": false
    },
    {
      "name": "Material__2143341489",
      "pbrMetallicRoughness": {
        "baseColorTexture": {
          "index": 1
        },
        "baseColorFactor": [
          1,
          1,
          1,
          1
        ],
        "metallicFactor": 0,
        "roughnessFactor": 0.99
      },
      "emissiveFactor": [
        0,
        0,
        0
      ],
      "alphaMode": "OPAQUE",
      "doubleSided": false
    },
    {
      "name": "Material__2143341501",
      "pbrMetallicRoughness": {
        "baseColorTexture": {
          "index": 2
        },
        "baseColorFactor": [
          1,
          1,
          1,
          1
        ],
        "metallicFactor": 0,
        "roughnessFactor": 0.99
      },
      "emissiveFactor": [
        0,
        0,
        0
      ],
      "alphaMode": "OPAQUE",
      "doubleSided": false
    }
  ],
  "meshes": [
    {
      "name": "Shang_1",
      "primitives": [
        {
          "attributes": {
            "POSITION": 0,
            "NORMAL": 1,
            "TEXCOORD_0": 2
          },
          "indices": 3,
          "material": 0,
          "mode": 4
        }
      ]
    },
    {
      "name": "Zhong_1",
      "primitives": [
        {
          "attributes": {
            "POSITION": 4,
            "NORMAL": 5,
            "TEXCOORD_0": 6
          },
          "indices": 7,
          "material": 1,
          "mode": 4
        }
      ]
    },
    {
      "name": "Xia_1",
      "primitives": [
        {
          "attributes": {
            "POSITION": 8,
            "NORMAL": 9,
            "TEXCOORD_0": 10
          },
          "indices": 11,
          "material": 2,
          "mode": 4
        }
      ]
    },
    {
      "name": "Box451_1",
      "primitives": [
        {
          "attributes": {
            "POSITION": 12,
            "NORMAL": 13,
            "TEXCOORD_0": 14
          },
          "indices": 15,
          "material": 3,
          "mode": 4
        },
        {
          "attributes": {
            "POSITION": 16,
            "NORMAL": 17,
            "TEXCOORD_0": 18
          },
          "indices": 19,
          "material": 4,
          "mode": 4
        }
      ]
    }
  ],
  "nodes": [
    {
      "name": "Shang",
      "mesh": 0
    },
    {
      "name": "Zhong",
      "mesh": 1
    },
    {
      "name": "Xia",
      "mesh": 2
    },
    {
      "name": "Box451",
      "mesh": 3
    }
  ],
  "samplers": [
    {
      "magFilter": 9729,
      "minFilter": 9986,
      "wrapS": 10497,
      "wrapT": 10497
    }
  ],
  "scene": 0,
  "scenes": [
    {
      "nodes": [
        0,
        1,
        2,
        3
      ]
    }
  ],
  "textures": [
    {
      "name": "Light_Black",
      "sampler": 0,
      "source": 0
    },
    {
      "name": "XiangYang_WWH_TT_27",
      "sampler": 0,
      "source": 1
    },
    {
      "name": "Honglvdeng006",
      "sampler": 0,
      "source": 2
    }
  ]
}
